<?xml version="1.0" encoding="utf-8"?>
<!-- Generator: Adobe Illustrator 25.0.0, SVG Export Plug-In . SVG Version: 6.00 Build 0)  -->
<svg version="1.1" id="图层_1" xmlns="http://www.w3.org/2000/svg" xmlns:xlink="http://www.w3.org/1999/xlink" x="0px" y="0px"
	 viewBox="0 0 217.2 217.2" style="enable-background:new 0 0 217.2 217.2;" xml:space="preserve">
<style type="text/css">
	.st0{fill:#ffe300;}
	.st1{fill:black}
</style>
<g>
	<path class="st1" d="M104.6,129.5c0,0,28.2-11.2,41.9-23.7l44.5,4.6c0,0-3.3,19.7-32.5,25.1C130.1,140.6,104.6,129.5,104.6,129.5z"
		/>
	<path class="st1" d="M74.9,74.9c-3.8-1.2-7.4-1-11,0.9c-14.3,7.3-4.6,50,0.4,65.9c12.9-4.4,28.9-10.8,47.6-20.1
		C98.1,94.1,85.6,78.4,74.9,74.9z"/>
	<g>
		<path class="st1" d="M34.7,143l-8.4,1.1c0.3,4.2,0.8,6.8,0.8,6.8c0.2,0,3.1-0.3,8.6-1.4L34.7,143z"/>
		<path class="st1" d="M64.2,70.5c-27.3,9.9-35.5,34-37.6,53.2l1.2,0.8c0,0,8.2,3.2,11.3,24.2c5.7-1.3,13.4-3.3,22.9-6.4l-1.9,0.6
			c-1.9-6.2-18.2-61.2,2-71.5c4.6-2.3,9.2-2.3,14.1-0.7c12.1,3.9,25,19.9,39.6,48.8c9-4.6,18.7-9.9,28.9-15.9
			C144.7,103.6,116.7,51.5,64.2,70.5z"/>
	</g>
</g>
<path class="st0" d="M108.6,217.2C48.7,217.2,0,168.5,0,108.6S48.7,0,108.6,0s108.6,48.7,108.6,108.6S168.5,217.2,108.6,217.2z
	 M108.6,8.5C53.4,8.5,8.5,53.4,8.5,108.6c0,55.2,44.9,100.1,100.1,100.1c55.2,0,100.1-44.9,100.1-100.1
	C208.7,53.4,163.8,8.5,108.6,8.5z"/>
</svg>
