<?xml version="1.0" encoding="utf-8"?>
<!-- Generator: Adobe Illustrator 25.0.0, SVG Export Plug-In . SVG Version: 6.00 Build 0)  -->
<svg version="1.1" id="图层_1" xmlns="http://www.w3.org/2000/svg" xmlns:xlink="http://www.w3.org/1999/xlink" x="0px" y="0px"
	 viewBox="0 0 217.2 217.2" style="enable-background:new 0 0 217.2 217.2;" xml:space="preserve">
<style type="text/css">
	.st0{fill:#ffe300;}
	.st1{fill:black}
</style>
<g>
	<g>
		<path class="st1" d="M126.8,132.8C126.8,132.8,126.8,132.8,126.8,132.8c-5.2-4.8-6.1-10.2-6.8-14.6l-0.1-0.7
			c-0.3-1.8-0.9-2.4-1.2-2.6c-0.3-0.2-0.5-0.2-0.5-0.2c-0.1,0-0.2,0-0.3,0H98c-0.1,0-0.2,0-0.3,0c-0.4,0-1.3,0.5-1.7,2.8l-0.1,0.7
			c-0.7,4.3-1.6,9.7-6.8,14.5c-0.4,0.4-1.3,1.1-0.4,3.3c0.9,2.4,1.7,4.4,1.9,4.7c0.1,0.1,0.6,0.9,1.4,0.9h31.9
			c0.8,0,1.3-0.8,1.4-0.9c0.1-0.3,1-2.3,1.9-4.7C128.1,133.9,127.2,133.1,126.8,132.8z"/>
		<path class="st1" d="M140.4,158c-0.9,0.2-1.6,0.3-1.7,0.3H77c-0.4,0-0.8,0-1.2-0.1c0,1.7,0,4.4,0,4.4c0,0.1,0,1.1,0.6,1.8
			c0.4,0.4,1,0.6,1.9,0.6c1.9,0,15.9,0,29.9-0.1c14,0,28,0.1,29.9,0.1c0.8,0,1.5-0.2,1.9-0.6c0.3-0.3,0.4-0.6,0.5-0.9
			c0.1-0.6,0.1-1,0.1-1S140.5,159.7,140.4,158z"/>
		<path class="st1" d="M168.5,158c-0.1-0.5-0.2-0.8-0.2-0.8c-0.8-3.2-18-72.7-21.5-87.9c-6.5,6.4-4.7,24.3-4.6,24.5
			c0,0.4,4.4,44,5.3,53.4c0.3,3.3-0.4,6-2.1,8c-0.1,0.2-0.3,0.3-0.4,0.4c0.1,0.4,0.2,1.5,0.8,4.5c0.7,3.5,1.5,7.3,2.9,8.5
			c0.9,0.7,2.4,0.7,3.4,0.6c0.4,0,0.7,0,1,0c0.4,0.1,0.7,0.4,0.8,0.7c0.8,2.2,1.5,3.4,2.1,3.6c0.6,0.2,1.9-0.4,3.5-1.3
			c0.3-0.2,0.7-0.4,1.1-0.6c1.2-0.6,2.1-1,2.9-1.4c1.9-0.9,3-1.4,3.4-1.7c0.1-0.1,0.1-0.1,0.2-0.2c0,0,0.1,0,0.1-0.1
			c0-0.1-0.1-0.2-0.1-0.3c-0.2-0.6-0.5-1.8-1.1-3c-0.1-0.2-0.1-0.4-0.1-0.6c0,0,0,0,0-0.1c0,0,0,0,0,0c0-0.1,0-0.2,0-0.3
			c0.1-0.3,0.4-0.6,0.7-0.7c1.1-0.4,1.6-1.3,1.9-2.2C168.7,159.9,168.7,158.8,168.5,158z"/>
		<path class="st1" d="M136.4,59.7c1.7-0.4,2-1.2,2.1-1.4c0.2-0.4,0.2-0.8,0.1-1.3c0,0,0,0,0,0c0-0.3-0.1-0.6-0.1-0.9
			c-0.5-1.8-1.8-4-2.9-5.9c-0.6-1-1.1-1.9-1.6-2.8c-0.6-1.2-1.4-2-2.1-2.6c-0.2,1-0.7,1.8-0.9,2.1c0,0-0.1,0.1-0.1,0.1
			c-1.4,1.6-12.1,13.8-17.3,19.2C119.3,64.7,131.2,61.1,136.4,59.7z"/>
		<path class="st1" d="M106.6,67.1c0.3,0.2,1.7,1,3,0c1.8-1.4,14.6-15.9,19.4-21.4c0.4-0.6,0.6-1.5,0.5-1.7c0,0-0.1-0.1-0.3-0.1
			c-0.3-0.1-0.5-0.1-0.6-0.1H87.4c-0.5,0.1-1,0.3-1,0.5c0,0.1,0,0.4,0.5,1.1C89.2,48.2,105.3,65.7,106.6,67.1z"/>
		<path class="st1" d="M79.3,59.6c0.8,0.2,17.1,5.1,23.7,7.1c-4.6-5-15.9-17.4-17.9-19.9c-0.4-0.5-0.7-1-0.9-1.5
			c-2.3,2.6-4.6,8-5.9,12.1c0,0,0,0,0,0.1c-0.2,0.5-0.2,1,0,1.3C78.5,59.2,79.1,59.5,79.3,59.6z"/>
		<path class="st1" d="M145.2,147.4c-0.9-9.3-5.2-52.9-5.3-53.3c-0.1-0.9-2.1-20.9,6.4-27.3c-1.1-4.9-3.9-7-5.5-7.9
			c0,0.2-0.1,0.3-0.2,0.5c-0.6,1.4-1.8,2.3-3.7,2.8c-3.2,0.8-8.8,2.5-14.1,4l7.1,44c0.1,0.7-0.3,1.3-1,1.4c-0.1,0-0.1,0-0.2,0
			c-0.6,0-1.1-0.4-1.2-1l-7-43.7c-4.7,1.4-8.6,2.6-9.2,2.8c-0.4,0.2-1.6,0.6-3.4,0.6c-1.1,0-2.3-0.2-3.8-0.6
			c-1.4-0.5-5.1-1.6-9.2-2.8l-5.9,43.7c-0.1,0.6-0.6,1-1.2,1c0,0-0.1,0-0.2,0c-0.7-0.1-1.1-0.7-1-1.3l6-44c-6.8-2-14-4.2-14.2-4.2
			c-0.2,0-1.7-0.5-2.5-2c-0.2-0.3-0.3-0.7-0.4-1.2c-1.8,0.9-4.8,3.2-5.9,8.2c3.8,4.9,8,14,6.1,30.1c-1.9,16.9-4.9,48.8-5,49.1
			c0,0-0.4,5.5,2.2,8.3c0.9,1,2.2,1.5,3.8,1.5h61.7c0,0,3-0.2,4.9-2.4C144.9,152.1,145.4,150,145.2,147.4z M129.5,137
			c-1,2.7-1.9,4.8-1.9,4.9s0,0,0,0.1c-0.4,0.8-1.6,2.3-3.6,2.3H92c-1.9,0-3.1-1.4-3.6-2.3c0,0,0,0,0-0.1c0,0-0.9-2.1-1.9-4.9
			c-0.9-2.5-0.6-4.5,1.1-6c4.5-4.2,5.3-9,6-13.2l0.1-0.7c0.4-2,1.1-3.5,2.2-4.2c0.9-0.6,1.8-0.6,2.2-0.5h19.7
			c0.8-0.1,1.5,0.1,2.2,0.5c1.1,0.8,1.9,2.2,2.2,4.2l0.1,0.7c0.7,4.2,1.5,8.9,6,13.2C130,132.5,130.4,134.5,129.5,137z"/>
		<path class="st1" d="M68.7,145.9c0-0.3,3.1-32.3,5-49.2c1.5-13.5-1.3-21.8-4.5-26.6c-3.8,16.5-20.5,84-21.3,87.1
			c-0.1,0.2-1.4,4.9,1.7,6.1c0.3,0.1,0.6,0.4,0.7,0.7c0.1,0.3,0.1,0.7-0.1,1c-0.7,1.3-1,2.4-1.1,3c0,0.1-0.1,0.2-0.1,0.3
			c0,0,0.1,0,0.1,0.1c0.1,0.1,0.2,0.1,0.2,0.2c0.4,0.4,1.6,0.9,3.4,1.7c0.8,0.4,1.7,0.8,2.9,1.3c0.4,0.2,0.8,0.4,1.1,0.6
			c1.6,0.9,2.9,1.5,3.5,1.3c0.6-0.2,1.3-1.4,2.1-3.6c0.1-0.4,0.5-0.7,0.8-0.7c0.3-0.1,0.6-0.1,1,0c0.9,0,2.4,0.1,3.4-0.6l0,0
			c1.4-1.1,2.3-5,2.9-8.5c0.5-2.6,0.7-3.8,0.7-4.3C68.3,152.2,68.7,146.1,68.7,145.9z"/>
	</g>
</g>
<path class="st0" d="M108.6,217.2C48.7,217.2,0,168.5,0,108.6S48.7,0,108.6,0s108.6,48.7,108.6,108.6S168.5,217.2,108.6,217.2z
	 M108.6,8.5C53.4,8.5,8.5,53.4,8.5,108.6c0,55.2,44.9,100.1,100.1,100.1c55.2,0,100.1-44.9,100.1-100.1
	C208.7,53.4,163.8,8.5,108.6,8.5z"/>
</svg>
