<?xml version="1.0" encoding="utf-8"?>
<!-- Generator: Adobe Illustrator 25.0.0, SVG Export Plug-In . SVG Version: 6.00 Build 0)  -->
<svg version="1.1" id="mx_n_1626017190610" xmlns="http://www.w3.org/2000/svg" xmlns:xlink="http://www.w3.org/1999/xlink" x="0px"
	 y="0px" viewBox="0 0 217.2 217.2" style="enable-background:new 0 0 217.2 217.2;" xml:space="preserve">
<style type="text/css">
	.st0{fill:#ffe300;}
	.st1{fill:black}
</style>
<g>
	<path class="st1" d="M105.4,87.4h6.3V65h-6.3V87.4z M108.7,69.3c0.9,0,1.6,0.7,1.6,1.6s-0.7,1.6-1.6,1.6s-1.6-0.7-1.6-1.6
		S107.8,69.3,108.7,69.3z M108.7,79.1c0.9,0,1.6,0.7,1.6,1.6s-0.7,1.6-1.6,1.6s-1.6-0.7-1.6-1.6S107.8,79.1,108.7,79.1z"/>
	<path class="st1" d="M108.7,62.3c5.7-2.3,8.5-6.3,8.5-11.9v-2H99.9h0v2.3C99.9,53.2,101.8,58.4,108.7,62.3z"/>
	<path class="st1" d="M113.9,62.4H128V50.9l-8.2-7.7v7.2C119.9,54.2,118.7,58.9,113.9,62.4z"/>
	<path class="st1" d="M97.4,50.7v-7.3l-8.1,7.5v11.5h14.9C97.6,57.3,97.4,51.4,97.4,50.7z"/>
	<path class="st1" d="M130.6,52.4v11.3c0,0.7-0.6,1.3-1.3,1.3h-15.1v23.7c0,0.7-0.6,1.3-1.3,1.3h-8.9c-0.7,0-1.3-0.6-1.3-1.3V65H88
		c-0.7,0-1.3-0.6-1.3-1.3V52.4c-7.1,3.2-14.5,5.9-19.1,7.6c-1.4,0.5-2.8,1-3.6,1.3c2.5,4,10,17.9,10,39.7v74.5h68v-74.9
		c0-23.7,6.3-34.8,8.9-38.4L130.6,52.4z"/>
	<path class="st1" d="M144.5,96.4c0,1,0.4,2,1.1,2.7c0,0,0,0,0,0l10.9,12.6l17.6-9.8L152.7,64C150.4,67.2,145.2,76.9,144.5,96.4z"/>
	<rect x="99.9" y="41.8" class="st1" width="17.3" height="4.1"/>
	<path class="st1" d="M42.2,101.4l18.7,11.7L70,99.8c0.1-0.1,0.1-0.2,0.2-0.3c0.6-0.7,1.1-1.5,1-2.4c-0.8-17.4-6.5-29.2-9-33.6
		L42.2,101.4z"/>
</g>
<path class="st0" d="M108.6,217.2C48.7,217.2,0,168.5,0,108.6S48.7,0,108.6,0s108.6,48.7,108.6,108.6S168.5,217.2,108.6,217.2z
	 M108.6,8.5C53.4,8.5,8.5,53.4,8.5,108.6c0,55.2,44.9,100.1,100.1,100.1c55.2,0,100.1-44.9,100.1-100.1
	C208.7,53.4,163.8,8.5,108.6,8.5z"/>
</svg>
