<?xml version="1.0" encoding="utf-8"?>
<!-- Generator: Adobe Illustrator 25.0.0, SVG Export Plug-In . SVG Version: 6.00 Build 0)  -->
<svg version="1.1" id="图层_1" xmlns="http://www.w3.org/2000/svg" xmlns:xlink="http://www.w3.org/1999/xlink" x="0px" y="0px"
	 viewBox="0 0 217.2 217.2" style="enable-background:new 0 0 217.2 217.2;" xml:space="preserve">
<style type="text/css">
	.st0{fill:#ffe300;}
		.st1{fill:black}
</style>
<g>
	<path class="st1" d="M135.3,48L135.3,48l-3.8-2.5c-1,4.5-7,18.1-22.4,18.1c-15.6,0-21.8-13.9-22.9-18.3c-1.3,0.8-2.7,1.6-3.9,2.3
		c-8,4.8-14.7,9.2-16.9,10.5c2.2,3.8,9,18.9,9,40.9v73.5h68.1V98.6c0-24.2,6.6-36.1,9-39.6L135.3,48z"/>
	<path class="st1" d="M109.1,61.2c14.3,0,19.5-12.8,20.2-16.5c-4.8,0.9-26.6,3.6-40.8,0.1C89.4,48.6,95,61.2,109.1,61.2z"/>
	<path class="st1" d="M153,60.9c-2.3,3.7-7.9,14.8-8.2,35.7c0.4,0.1,0.8,0.3,1.1,0.7l13.5,6.4l17.4-19.5L153,60.9z"/>
	<path class="st1" d="M39.3,83.7l17.4,19.5l13.5-6.4c0.3-0.4,0.7-0.6,1.1-0.7c-0.3-20.9-5.9-32-8.2-35.7L39.3,83.7z"/>
</g>
<path class="st0" d="M108.6,217.2C48.7,217.2,0,168.5,0,108.6S48.7,0,108.6,0s108.6,48.7,108.6,108.6S168.5,217.2,108.6,217.2z
	 M108.6,8.5C53.4,8.5,8.5,53.4,8.5,108.6c0,55.2,44.9,100.1,100.1,100.1c55.2,0,100.1-44.9,100.1-100.1
	C208.7,53.4,163.8,8.5,108.6,8.5z"/>
</svg>
