<?xml version="1.0" encoding="utf-8"?>
<!-- Generator: Adobe Illustrator 23.0.0, SVG Export Plug-In . SVG Version: 6.00 Build 0)  -->
<svg version="1.1" xmlns="http://www.w3.org/2000/svg" xmlns:xlink="http://www.w3.org/1999/xlink" x="0px" y="0px"
	 viewBox="0 0 250 70" style="enable-background:new 0 0 250 70;" xml:space="preserve">
<style type="text/css">
	.st0{display:none;}
	.st1{display:inline;fill:#14172C;}
	.st2{display:inline;fill:#FF1D25;}
	.st3{display:inline;fill:#1A1A1A;}
	.st4{display:inline;}
	.st5{fill:#FFFFFF;}
	.st6{fill:#D59442;}
	.st7{fill:#333333;}
	.st8{fill:#5B5B5B;}
</style>
<g id="图层_1" class="st0">
	<g>
		<title>logo</title>
		<path class="st1" d="M74.4,69.3h-3.1C70.1,69.4,69,69.4,69,66V50.1h1.4V66c0,2,0.4,2,0.9,2h3.2L74.4,69.3L74.4,69.3z"/>
		<path class="st1" d="M82.4,51.8h-2.9c-0.8,0-1.3-0.1-1.3,2.2v5h4.3v1.3h-4.3v5.8c0,2.1,0.6,2,1.2,2h3v1.4h-3
			c-1.4,0-2.5-0.1-2.6-3.4v-12c0-3.5,1.1-3.6,2.6-3.6h2.9L82.4,51.8z"/>
		<path class="st1" d="M84.7,50.8h6.7v1.4h-2.7v17.5h-1.4V52.2h-2.6V50.8z"/>
		<path class="st1" d="M97,47.3l-1.8,5.5l-1.3-0.4l1.8-5.5L97,47.3z"/>
		<path class="st1" d="M103.6,52.1c-0.6-0.2-1.2-0.3-1.8-0.3c-1.3,0-2.3,0.7-2.3,3.4c-0.1,1.6,0.7,3.1,2.1,4
			c1.2,0.9,2.1,2.2,2.5,3.7c0.2,0.7,0.2,1.4,0.2,2.2c0,2.6-1.1,4.6-3.7,4.6c-0.8,0-1.5-0.2-2.2-0.5l0.4-1.3c0.6,0.2,1.2,0.4,1.8,0.4
			c1.6,0,2.3-1.4,2.3-3.2c0-0.6-0.1-1.3-0.2-1.9c-0.3-1.2-1.1-2.2-2.1-2.9c-1.7-1.1-2.6-3-2.6-5c0.1-3.7,1.7-4.7,3.7-4.7
			c0.7,0,1.5,0.1,2.2,0.3L103.6,52.1z"/>
		<path class="st1" d="M113.4,50.6L113.4,50.6c0.3,0,0.7-0.1,1-0.1c2.9,0,4,1.7,4,4.5c0.1,1.5-0.3,3-1.1,4.3c1,0.9,1.4,2.8,1.4,4.6
			c0,3.5-1.4,5.3-4.6,5.3c-0.3,0-0.6,0-0.9,0H112V50.6H113.4z M113.4,52v6.8h2.6c0.7-0.1,1.1-2,1.1-3.8c0-1.2,0.1-3.1-2.6-3.1
			C114.1,51.9,113.7,51.9,113.4,52L113.4,52z M113.4,60.2V68c0.2,0,0.5,0,0.7,0c2.5,0,3.2-1.2,3.2-3.9c0-1.8-0.5-3.6-1.3-3.9
			L113.4,60.2z"/>
		<path class="st1" d="M127,51.8h-2.9c-0.8,0-1.3-0.1-1.3,2.2v5h4.3v1.3h-4.3v5.8c0,2.1,0.6,2,1.2,2h3v1.4h-3
			c-1.4,0-2.5-0.1-2.6-3.4v-12c0-3.5,1-3.6,2.6-3.6h2.9v1.3H127z"/>
		<path class="st1" d="M140.9,51.8H138c-0.8,0-1.3,0.3-1.2,2.6v4.7h4.3v1.3h-4.3v9.1h-1.4v-15c0-3.5,1-4,2.6-4h2.9L140.9,51.8
			L140.9,51.8z"/>
		<path class="st1" d="M143.6,69.7V50.6h1.4l0,0c1.3-0.4,2.8-0.1,3.9,0.8c0.8,0.8,1.3,2.3,1.3,4.3c0.1,1.6-0.3,3.3-1.2,4.6
			c-0.3,0.3-0.6,0.6-1,0.7l2.5,8l-1.3,0.4l-2.5-8.1h-0.4c-0.4,0-0.8,0-1.2-0.1H145v8.3L143.6,69.7z M145,52v8h0.2
			c0.3,0,0.7,0.1,1.1,0.1c0.6,0.1,1.2-0.2,1.7-0.6c0.6-0.7,0.8-2.2,0.8-3.7c0-1.7-0.3-2.8-0.8-3.4C147.2,51.6,146,51.9,145,52
			L145,52z"/>
		<path class="st1" d="M158.4,51.8h-2.9c-0.8,0-1.3-0.1-1.3,2.2v5h4.3v1.3h-4.3v5.8c0,2.1,0.5,2,1.2,2h3v1.4h-3
			c-1.4,0-2.5-0.1-2.6-3.4v-12c0-3.5,1.1-3.6,2.6-3.6h2.9v1.3H158.4z"/>
		<path class="st1" d="M166.8,51.8h-2.9c-0.8,0-1.3-0.1-1.3,2.2v5h4.3v1.3h-4.3v5.8c0,2.1,0.5,2,1.2,2h2.9v1.4h-2.9
			c-1.4,0-2.5-0.1-2.6-3.4v-12c0-3.5,1.1-3.6,2.6-3.6h2.9v1.3H166.8z"/>
		<path class="st2" d="M147.2,38.2v-4c1.3-2.2,1.9-6.2,1.8-12.1V2.6h6.6V0.2h4.5v2.5h5.9V6h-4.5v3.8h4.6V16c0.1,3-1.3,4.4-4.1,4.3
			h-9.6v1.2C152.8,29.7,151.1,35.3,147.2,38.2z M152.5,6v3.8h1.8V6H152.5z M152.5,12.8v4.5h1.8v-4.5L152.5,12.8z M153.7,37.6v-16
			h3.1v3h2.2v3.1h-2.1v5.1c0.8-0.3,1.6-0.7,2.3-1.1v2.8C157.5,35.8,155.7,36.8,153.7,37.6L153.7,37.6z M157.1,6v3.8h1.9V6H157.1z
			 M157.1,12.8v4.5h1.9v-4.5L157.1,12.8z M160,37.5v-16h3.1v3h2v3.1h-2v5.1c0.9-0.4,1.8-0.8,2.6-1.3v3C164,35.7,162.1,36.8,160,37.5
			z M163.5,12.7h-1.9v4.5h0.2c1.2,0.1,1.8-0.5,1.7-1.8V12.7z M165.8,38.5v-3.3c2.1-1.3,3.7-3.2,4.6-5.5c-0.8-0.6-1.8-1.1-2.8-1.3
			v-1.6c-0.5,0.7-1.2,1.4-2,1.8v-3.1c1.7-1.8,2.6-4.5,2.8-8.3h3.3c-0.1,0.8-0.3,1.6-0.5,2.3h4.6v3.1
			C175.1,29.8,171.7,35.1,165.8,38.5L165.8,38.5z M166.9,10.1V6.9h7.6V0h4v6.9h7.6V10h-3.8c0.7,2.2,2.1,4,4.1,5.1V18
			c-3.7-1.2-6.6-4.2-7.8-7.9h-0.2v7.8h-4v-7.8h-0.2c-1.1,3.7-3.9,6.7-7.6,7.9v-2.8c1.9-1.1,3.4-3,4-5.1
			C170.6,10.1,166.9,10.1,166.9,10.1z M169,6c-0.8-1.4-1.3-3-1.5-4.6h3.8c0.2,1.6,0.7,3.2,1.3,4.6H169z M168.5,25.7
			c1.1,0.1,2.2,0.5,3,1.2c0.4-1,0.6-2.1,0.8-3.1c0.1-0.3,0.1-0.7,0.2-1h-2.3C169.9,23.8,169.3,24.8,168.5,25.7L168.5,25.7z
			 M176.6,22.7v-3h3.5v-2.3h3.5v2.3h2.5v3h-2.5V29h2.8v3h-2.8v6h-3.4v-6.1H180c-2.9,0.1-4.2-1.2-4.1-3.8v-3.8h2.6v2.6
			c-0.2,0.9,0.5,1.8,1.4,2c0.1,0,0.2,0,0.2,0v-6.3L176.6,22.7z M180.4,6c0.6-1.5,1-3.1,1.3-4.6h3.6c-0.2,1.6-0.7,3.2-1.5,4.6H180.4z
			"/>
		<path class="st2" d="M219.6,37.5c-10.1,0.5-15.1-9.9-14.9-31.2H188V2.6h22.5c-0.2,11.5,0.4,19.6,2,24.5c1.5,4.6,3.8,6.9,6.9,6.9
			c2.1,0,3.1-1.2,3.1-3.5h3.8C226.4,35.2,224.2,37.5,219.6,37.5z M225.5,24.1c-3.9-2-8-3.5-12.2-4.5V16c4.2,0.3,8.3,1.2,12.2,2.6
			V24.1z M214.1,12.2V8.8c4-0.6,8-1.8,11.6-3.8v5.1C222,11.5,218,12.2,214.1,12.2z"/>
		<path class="st1" d="M10.1,37.3c-1.7,0-3.4-0.6-4.8-1.7c-1.5-1.1-2.8-2.5-3.8-4.1c-0.8-1.1-1.4-2.4-1.5-3.7v-27h10.1v21.9
			c0,1.2,0.3,2.3,1,3.2c0.6,0.8,1.4,1.5,2.3,2.1c0.7,0.4,1.5,0.6,2.3,0.7h24.9v8.6L10.1,37.3z"/>
		<path class="st1" d="M92.4,21.6c-1.1,1.2-2.7,1.8-4.3,1.7H54.8V25c0,1,0.3,1.9,1,2.6c0.6,0.7,1.4,1.1,2.3,1.2h35v8.6h-37
			c-2.3,0.1-4.5-0.6-6.3-1.9c-1.7-1.2-3.1-2.8-4.1-4.6c-0.8-1.3-1.3-2.7-1.4-4.2v-16c0-1.3,0.4-2.5,1-3.6C46,5.9,46.9,4.8,48,3.8
			c1-0.9,2.2-1.7,3.5-2.2c1.1-0.5,2.2-0.8,3.4-0.8H85c1,0,2,0.3,2.9,0.8c1.1,0.5,2.1,1.2,2.9,2c0.8,0.7,1.5,1.6,2.1,2.5
			c0.5,0.7,0.8,1.6,0.8,2.5v8.8C93.8,18.9,93.3,20.4,92.4,21.6z M82.5,10.2c-0.6-0.4-1.4-0.7-2.2-0.7H58.4c-1,0-1.9,0.5-2.6,1.2
			c-0.7,0.7-1.1,1.7-1.1,2.7v1.5h28.6l0.1-2.8C83.4,11.4,83.1,10.7,82.5,10.2z"/>
		<path class="st1" d="M112.3,9.4c-1,0-1.9,0.5-2.4,1.3c-0.6,0.6-1,1.4-1.1,2.3v1.9h30v8.5h-30v14H98.5V10.6
			c0.1-1.6,0.6-3.1,1.6-4.4c1.1-1.5,2.5-2.8,4.1-3.8c1.5-0.9,3.3-1.5,5.1-1.5h30.2v8.5C139.5,9.4,112.3,9.4,112.3,9.4z"/>
		<path class="st1" d="M237.9,2.3H235v9.4h-1.6V2.3h-2.9V0.9h7.5L237.9,2.3z"/>
		<path class="st1" d="M249.4,11.8h-1.6l-0.2-4.6c-0.1-1.5-0.1-3.1-0.1-4.5l0,0c-0.3,1.3-0.8,2.7-1.2,4l-1.6,4.9h-1.2L242,6.8
			c-0.4-1.4-0.8-2.8-1.1-4.1l0,0c0,1.3-0.1,3.1-0.2,4.6l-0.2,4.5h-1.6l0.7-10.9h2l1.6,4.8c0.4,1.3,0.7,2.5,1,3.7l0,0
			c0.3-1.2,0.6-2.4,1-3.7l1.6-4.8h2.1L249.4,11.8z"/>
	</g>
	<g>
		<rect x="154.9" y="4.8" class="st3" width="95.1" height="45.9"/>
	</g>
	<g id="图层_3">
		<g class="st4">
			<g>
				<g>
					<path class="st5" d="M196.9,19.5h6.9v-3.3H198c1.6-1.7,4.7-4.9,4.7-4.9l-3-2l-4.9,5.5l1.5,1.4h-1.5V7.7h-3.5v7l-0.5-0.6
						c-1.2-1.4-2.6-2.8-4.2-4.4l-0.5-0.5l-2.7,2.1l0.7,0.6c1.5,1.4,4,4.2,4,4.2h-5.4v2.2h-4v-3.5h4.6v-3.3h-6.7L176,8.3h-3.3
						l0.5,3.3h-7v12c0,5.9-0.2,10-0.5,12.4l0,0c-0.2,2.4-0.8,4.6-1.8,6.8l-0.3,0.6l3.3,1.4c1.7-3.6,2.5-9,2.5-16H183v-0.4l1.2-0.6
						c0.5-0.3,1-0.5,1.5-0.8c-0.8,2.5-2,4.7-3.6,6.7v-1.3h-2.7v-3.1H176v3.1h-2.7v-2.9H170V40v0.1c0.1,0.8-0.1,1.5-0.6,2l-0.4,0.5
						l2.2,2.6l0.6-0.4c1.2-0.8,2.4-1.5,3.5-2.1L177,45l0.6-0.4c1.5-1,3.2-1.9,5-2.5l0.5-0.2v-3.5l-3.7,1.7v-4.6h1.1l0,0l2.4,2.9
						c0,0,1.8-2.6,1.9-2.7C185,35.8,187,38,187,38c-1.4,2.2-3.3,4-5.8,5.4l-1,0.6l0.9,0.7c0.6,0.5,1,0.9,1.3,1.3l0.4,0.6l0.6-0.4
						c5-3.2,8.1-8,9.3-14.2h4.1v4.6h-1.4l0.8-4.2H193l-1.6,7.4h5.4V46h3.3v-6.2h4v-3.3h-4v-4.6h3.7v-3.3h-3.7v-2.3
						c0.6,0.4,1.2,0.7,1.9,1l0.7,0.3l1.9-3.1l-0.8-0.3C201,23.1,198.7,21.5,196.9,19.5z M173.3,40.2v-4.7h2.7V39L173.3,40.2z
						 M186.5,33.1c0.3-0.4,0.5-0.9,0.7-1.3h2.2c-0.2,1-0.5,1.9-0.8,2.8C188.4,34.4,186.7,33.2,186.5,33.1z M191.3,14.8v1.4h-1.8
						L191.3,14.8z M183,19.5h6.2c-1.8,2.1-3.9,3.8-6.2,5.1V19.5z M179.8,21.6v4.1h-1.1v-4.1H179.8z M175.4,21.6v4.1h-1.3v-4.1H175.4
						z M170.8,21.6v4.1h-1.3v-4.1H170.8z M169.5,18.4v-3.5h1.3v3.5H169.5z M174.1,18.4v-3.5h1.3v3.5H174.1z M192.7,28.7h-4.1
						l0.9-2.6l-2-0.4c1.4-1.1,2.7-2.5,3.8-4v5.9h3.5v-6c1.2,1.6,2.7,3,4.4,4.1h-2.3v2.9h-4.2V28.7z"/>
					<polygon class="st5" points="225.8,40.3 226.5,28.5 240.3,39.7 240.3,34.4 229.3,25.5 240,16.7 240,11.4 226.8,22.3 
						227.2,12.1 203.9,12.1 203.9,16.2 222.8,16.2 221.4,44.4 239.7,44.4 242.5,40.3 					"/>
				</g>
				<g>
					<path class="st6" d="M0.1,50.7V4.8h12.7v33.9h24.5v12.1H0.1V50.7z"/>
					<path class="st6" d="M41.9,50.7V4.8h42.9v12H54.6v5.1H73v11.9H54.6v4.9h30.7v12H41.9z"/>
					<path class="st6" d="M90.5,50.7V4.8h43v12h-30.3v5.1h18.6v12h-18.6v16.9H90.5V50.7z"/>
					<path class="st6" d="M138.4,50.7V4.8h12.7v45.9H138.4z"/>
				</g>
			</g>
		</g>
	</g>
	<g id="图层_4">
	</g>
</g>
<g id="图层_2">
	<g>
		<g>
			<path class="st7" d="M173.9,22.6l0.8,0.4l2.1-3.6l-0.9-0.4c-3.2-1.3-5.9-3.2-7.9-5.5h7.9V9.8h-6.7c1.8-1.9,5.4-5.6,5.4-5.6
				l-3.4-2.3l-5.6,6.3l1.7,1.6h-1.8V0.1h-4v8l-0.6-0.7c-1.4-1.6-3-3.2-4.8-5l-0.6-0.5l-3.1,2.4l0.8,0.7c1.8,1.6,4.6,4.8,4.6,4.8
				h-6.1v2.5h-4.6v-4h5.3V4.5h-7.7L144,0.7l-3.8-0.1l0.5,3.8h-8v13.8c0,6.7-0.2,11.5-0.5,14.2l0,0c-0.2,2.7-0.9,5.3-2.1,7.8
				l-0.3,0.7l3.8,1.7c1.9-4.2,2.9-10.3,2.8-18.3H152l0-0.5l1.3-0.7c0.6-0.3,1.1-0.6,1.7-1c-1,2.8-2.3,5.4-4.1,7.6v-1.5h-3.1v-3.5
				H144v3.5h-3.1v-3.4h-3.8v12l0,0.1c0.1,0.9-0.1,1.7-0.7,2.3l-0.5,0.6l2.5,3l0.7-0.5c1.4-0.9,2.8-1.7,4.1-2.4l1.9,2.7l0.7-0.5
				c1.8-1.1,3.7-2.1,5.7-2.9l0.6-0.2v-4l-4.2,1.9v-5.3h1.3l0,0l2.8,3.3c0,0,2-3,2.1-3.1c0.2,0.2,2.5,2.6,2.5,2.6
				c-1.6,2.6-3.8,4.6-6.6,6.2l-1.2,0.7l1,0.8c0.7,0.5,1.2,1,1.5,1.4l0.5,0.7l0.7-0.4c5.7-3.6,9.3-9.1,10.7-16.3h4.7v5.2h-1.6
				l0.9-4.8h-3.7l-1.9,8.5h6.2v7.1h3.8v-7.1h4.6v-3.8h-4.6v-5.2h4.2v-3.8h-4.2v-2.6C172.4,21.9,173.1,22.3,173.9,22.6z M138,20.7
				h-1.5V16h1.5V20.7z M138,12.2h-1.5v-4h1.5V12.2z M143.3,20.7h-1.5V16h1.5V20.7z M143.3,12.2h-1.5v-4h1.5V12.2z M148.4,20.7h-1.3
				V16h1.3V20.7z M144,35.9l-3.1,1.4v-5.4h3.1L144,35.9z M161.5,8.2v1.6h-2.1L161.5,8.2z M152,19.4v-5.8h7.1
				C157.1,16,154.7,17.9,152,19.4z M158.5,30.9c-0.3-0.2-2.2-1.6-2.4-1.7c0.3-0.5,0.6-1,0.8-1.5h2.5
				C159.1,28.8,158.8,29.8,158.5,30.9z M167.9,20.7v3.4h-4.7h-4.7l1-3l-2.3-0.4c1.7-1.3,3.1-2.9,4.4-4.6v6.8h4V16
				c1.4,1.8,3.1,3.4,5,4.7H167.9z"/>
			<polygon class="st7" points="201.1,37.4 201.9,23.8 217.7,36.7 217.7,30.6 205.1,20.4 217.4,10.4 217.4,4.3 202.2,16.7 
				202.7,5.1 176,5.1 176,9.8 197.6,9.8 196,42.1 217,42.1 220.2,37.4 			"/>
			<polygon class="st6" points="114,42.5 124.8,35.4 124.8,0.2 114,0.2 			"/>
			<rect x="48.3" y="0.2" class="st7" width="22.3" height="8.6"/>
			<rect x="48.3" y="16.4" class="st7" width="20.7" height="7.8"/>
			<polygon class="st6" points="48.2,24.2 37.4,24.2 37.4,42.5 71.2,42.5 71.2,33.6 48.2,33.6 			"/>
			<polygon class="st6" points="77.3,24.2 77.3,42.5 88.1,42.5 88.1,24.9 105.2,24.9 105.2,17 88.1,17 			"/>
			<rect x="88.1" y="0.2" class="st7" width="19.8" height="8.6"/>
			<rect x="0.2" y="0.2" class="st6" width="10.8" height="33"/>
			<rect x="11" y="33.2" class="st7" width="20.8" height="9.2"/>
		</g>
		<g>
			<g>
				<path class="st8" d="M65.6,69.5h-3.2c-1.3,0.1-2.4,0.1-2.4-3.4V49.8h1.4v16.3c0,2,0.4,2.1,0.9,2h3.3V69.5z"/>
				<path class="st8" d="M73.8,51.6h-3c-0.8,0-1.3-0.1-1.3,2.3V59h4.4v1.4h-4.4v5.9c0,2.1,0.6,2,1.2,2h3v1.4h-3
					c-1.4,0-2.6-0.1-2.6-3.5V53.9c0-3.6,1.1-3.7,2.7-3.7h3V51.6z"/>
				<path class="st8" d="M76.1,50.5h6.8v1.4h-2.8v17.9h-1.4V51.9h-2.7V50.5z"/>
				<path class="st8" d="M88.7,46.9l-1.8,5.7l-1.4-0.4l1.8-5.7L88.7,46.9z"/>
				<path class="st8" d="M95.4,51.9c-0.6-0.2-1.3-0.3-1.8-0.3c-1.3,0-2.3,0.8-2.4,3.5c-0.1,2.2,1,3.1,2.1,4.1
					c1.1,0.9,2.2,1.9,2.6,3.8c0.2,0.8,0.3,1.5,0.3,2.2c0,2.6-1.1,4.7-3.8,4.7c-0.6,0-1.4-0.2-2.3-0.5l0.4-1.3
					c0.7,0.3,1.3,0.4,1.8,0.4c1.7,0,2.4-1.5,2.4-3.3c0-0.6-0.1-1.3-0.2-1.9c-0.3-1.4-1.3-2.2-2.2-3c-1.3-1.1-2.7-2.3-2.6-5.2
					c0.1-3.8,1.8-4.8,3.8-4.8c0.8,0,1.5,0.1,2.3,0.4L95.4,51.9z"/>
				<path class="st8" d="M105.6,50.3L105.6,50.3c0.4,0,0.7-0.1,1-0.1c3,0,4.1,1.7,4.1,4.6c0,1.7-0.4,3.5-1.1,4.5
					c1,0.9,1.4,2.9,1.4,4.8c0,3.6-1.4,5.4-4.7,5.4c-0.3,0-0.6,0-0.9,0h-1.2V50.3H105.6z M105.6,51.7v7h2.6c0.7-0.1,1.1-2,1.1-3.9
					c0-1.2,0.1-3.2-2.7-3.2C106.3,51.7,105.9,51.7,105.6,51.7z M105.6,60.1v8c0.3,0,0.5,0,0.8,0c2.5,0,3.3-1.2,3.3-4
					c0-1.9-0.5-3.7-1.4-4H105.6z"/>
				<path class="st8" d="M119.5,51.6h-3c-0.8,0-1.3-0.1-1.3,2.3V59h4.4v1.4h-4.4v5.9c0,2.1,0.6,2,1.2,2h3v1.4h-3
					c-1.4,0-2.6-0.1-2.6-3.5V53.9c0-3.6,1.1-3.7,2.7-3.7h3V51.6z"/>
				<path class="st8" d="M133.7,51.6h-3c-0.8,0-1.3,0.3-1.3,2.7V59h4.4v1.4h-4.4v9.4h-1.4V54.3c0-3.6,1.1-4.1,2.7-4.1h3V51.6z"/>
				<path class="st8" d="M136.5,69.9V50.3h1.4v0c1.4-0.2,2.9-0.2,4,0.8c0.8,0.9,1.3,2.4,1.3,4.5c0,1.9-0.4,3.8-1.2,4.8
					c-0.3,0.3-0.6,0.6-1,0.8l2.6,8.2l-1.4,0.4l-2.6-8.3h-0.4c-0.4,0-0.9,0-1.2-0.1H138v8.5H136.5z M138,51.7V60h0.2
					c0.3,0,0.8,0.1,1.1,0.1c0.6,0,1.3-0.1,1.7-0.6c0.6-0.7,0.8-2.2,0.8-3.8c0-1.8-0.3-2.9-0.9-3.5C140.2,51.4,139,51.7,138,51.7
					L138,51.7z"/>
				<path class="st8" d="M151.7,51.6h-3c-0.8,0-1.3-0.1-1.3,2.3V59h4.4v1.4h-4.4v5.9c0,2.1,0.6,2,1.2,2h3v1.4h-3
					c-1.4,0-2.6-0.1-2.6-3.5V53.9c0-3.6,1.1-3.7,2.7-3.7h3V51.6z"/>
				<path class="st8" d="M160.3,51.6h-3c-0.8,0-1.3-0.1-1.3,2.3V59h4.4v1.4H156v5.9c0,2.1,0.6,2,1.2,2h3v1.4h-3
					c-1.4,0-2.6-0.1-2.6-3.5V53.9c0-3.6,1.1-3.7,2.7-3.7h3V51.6z"/>
			</g>
		</g>
	</g>
</g>
</svg>
