<svg id="图层_1" data-name="图层 1" xmlns="http://www.w3.org/2000/svg" viewBox="0 0 250 70"><defs><style>.cls-1{fill:#14172c;}.cls-2{fill:#ff1d25;}</style></defs><title>logo</title><path class="cls-1" d="M74.44,69.34H71.32C70.1,69.4,69,69.4,69,66V50.11H70.4V66c0,2,.41,2,.87,2h3.17Z"/><path class="cls-1" d="M82.42,51.85h-2.9c-.76,0-1.3-.09-1.28,2.22v5h4.32v1.35H78.24v5.75c0,2.09.55,2,1.2,2h3v1.39h-3c-1.41,0-2.53-.08-2.55-3.37V54.07c0-3.47,1.06-3.61,2.63-3.61h2.9Z"/><path class="cls-1" d="M84.7,50.84h6.68V52.2H88.69V69.67H87.33V52.2H84.7Z"/><path class="cls-1" d="M97,47.31l-1.79,5.51-1.33-.4,1.79-5.51Z"/><path class="cls-1" d="M103.55,52.12a6,6,0,0,0-1.79-.3c-1.25,0-2.28.73-2.34,3.39a4.41,4.41,0,0,0,2.07,4A6.73,6.73,0,0,1,104,62.86a10.59,10.59,0,0,1,.24,2.17c0,2.55-1.09,4.59-3.66,4.59a6.91,6.91,0,0,1-2.23-.47l.44-1.27a4.92,4.92,0,0,0,1.79.38c1.63,0,2.3-1.44,2.3-3.23a10.78,10.78,0,0,0-.19-1.87,5.38,5.38,0,0,0-2.11-2.93,5.67,5.67,0,0,1-2.55-5c.05-3.69,1.71-4.72,3.69-4.72a6.83,6.83,0,0,1,2.19.35Z"/><path class="cls-1" d="M113.41,50.62v0a7.84,7.84,0,0,1,1-.08c2.9,0,4,1.68,4,4.48a8,8,0,0,1-1.11,4.34c1,.92,1.38,2.79,1.38,4.64,0,3.47-1.38,5.29-4.55,5.29-.33,0-.63,0-.93,0h-1.16V50.62Zm0,1.39v6.81H116c.65-.06,1.06-2,1.06-3.77,0-1.17.11-3.12-2.63-3.12A5.73,5.73,0,0,0,113.41,52Zm0,8.16v7.76a6.36,6.36,0,0,0,.74,0c2.47,0,3.2-1.17,3.2-3.93,0-1.82-.46-3.61-1.33-3.86Z"/><path class="cls-1" d="M127,51.85h-2.9c-.76,0-1.3-.09-1.28,2.22v5h4.32v1.35H122.8v5.75c0,2.09.55,2,1.2,2h3v1.39h-3c-1.41,0-2.53-.08-2.55-3.37V54.07c0-3.47,1-3.61,2.63-3.61H127Z"/><path class="cls-1" d="M140.87,51.85h-2.93c-.76,0-1.27.29-1.24,2.6v4.67H141v1.35H136.7v9.12h-1.36V54.45c0-3.53,1-4,2.6-4h2.93Z"/><path class="cls-1" d="M143.61,69.72V50.62H145v0a4.32,4.32,0,0,1,3.85.82c.82.84,1.25,2.3,1.25,4.34a7.93,7.93,0,0,1-1.17,4.64,2.93,2.93,0,0,1-1,.73l2.52,8-1.33.41-2.52-8.08h-.35c-.38,0-.84,0-1.2-.06H145v8.3ZM145,52v8h.16c.33,0,.73.08,1.09.08a2.18,2.18,0,0,0,1.68-.57c.57-.65.81-2.17.81-3.74,0-1.74-.3-2.83-.84-3.39-.73-.74-1.87-.44-2.85-.41Z"/><path class="cls-1" d="M158.37,51.85h-2.9c-.76,0-1.3-.09-1.27,2.22v5h4.31v1.35H154.2v5.75c0,2.09.54,2,1.19,2h3v1.39h-3c-1.41,0-2.52-.08-2.55-3.37V54.07c0-3.47,1.06-3.61,2.63-3.61h2.9Z"/><path class="cls-1" d="M166.76,51.85h-2.9c-.76,0-1.31-.09-1.28,2.22v5h4.32v1.35h-4.32v5.75c0,2.09.54,2,1.2,2h2.95v1.39h-2.95c-1.41,0-2.53-.08-2.55-3.37V54.07c0-3.47,1.05-3.61,2.63-3.61h2.9Z"/><path class="cls-2" d="M147.23,38.17v-4q2-3.3,1.81-12.06V2.64h6.61V.16h4.46V2.64h5.95V6H161.6v3.8h4.63V16c.1,3-1.27,4.4-4.14,4.29h-9.58v1.16Q153,33.87,147.23,38.17ZM152.51,6v3.8h1.82V6Zm0,6.77v4.46h1.82V12.72Zm1.16,24.78v-16h3.14v3H159v3.14h-2.15v5.12a11.31,11.31,0,0,0,2.31-1.15v2.81A16.93,16.93,0,0,1,153.67,37.5ZM157.14,6v3.8H159V6Zm0,6.77v4.46H159V12.72ZM160,37.5v-16h3.14v3h2v3.14h-2v5.12a14.79,14.79,0,0,0,2.64-1.32v3A22.6,22.6,0,0,1,160,37.5Zm3.47-24.78H161.6v4.46h.16c1.22.11,1.77-.49,1.66-1.81Zm2.31,25.78V35.19a11.86,11.86,0,0,0,4.63-5.45,7.37,7.37,0,0,0-2.81-1.32V26.77a6.43,6.43,0,0,1-2,1.81V25.44c1.66-1.76,2.59-4.51,2.81-8.26h3.31a12,12,0,0,1-.5,2.32h4.63v3.13Q174.65,33.39,165.73,38.5Zm1.16-28.42V6.94h7.6V0h4V6.94h7.6v3.14h-3.8a8.79,8.79,0,0,0,4.13,5.12V18a11.88,11.88,0,0,1-7.76-7.93h-.17v7.76h-4V10.08h-.17a11.86,11.86,0,0,1-7.6,7.93V15.2a8.79,8.79,0,0,0,4-5.12ZM169,6a13.44,13.44,0,0,1-1.48-4.63h3.8A16.07,16.07,0,0,0,172.67,6Zm-.49,19.66a5.09,5.09,0,0,1,3,1.16,22.77,22.77,0,0,0,.83-3.14,4.42,4.42,0,0,0,.16-1h-2.31A6.72,6.72,0,0,1,168.54,25.61Zm8.09-3v-3h3.47V17.35h3.47v2.31h2.48v3h-2.48v6.28h2.81v3h-2.81V38H180.1V31.89h-.16c-2.87.11-4.24-1.16-4.13-3.8v-3.8h2.64v2.64a1.72,1.72,0,0,0,1.65,2V22.63ZM180.43,6a28.45,28.45,0,0,0,1.33-4.63h3.63A13.45,13.45,0,0,1,183.9,6Z"/><path class="cls-2" d="M219.55,37.5q-15.2.82-14.87-31.22H188V2.64h22.47q-.33,17.19,2,24.46Q214.76,34,219.39,34q3.13,0,3.14-3.46h3.79Q226.49,37.5,219.55,37.5Zm5.95-13.38a55.25,55.25,0,0,0-12.23-4.46V16a42.25,42.25,0,0,1,12.23,2.64ZM214.1,12.23V8.76A34.67,34.67,0,0,0,225.66,5v5.12A34.32,34.32,0,0,1,214.1,12.23Z"/><path class="cls-1" d="M10.11,37.32A8.09,8.09,0,0,1,5.32,35.6a15.69,15.69,0,0,1-3.81-4.12A7.51,7.51,0,0,1,0,27.78V.84H10.11V22.72a5.59,5.59,0,0,0,1,3.23A8,8,0,0,0,13.45,28a5.19,5.19,0,0,0,2.29.68H40.65v8.6Z"/><path class="cls-1" d="M92.4,21.58a5.24,5.24,0,0,1-4.33,1.66l-33.3,0V25a3.59,3.59,0,0,0,1,2.56,3.27,3.27,0,0,0,2.29,1.2h35v8.6h-37a10.57,10.57,0,0,1-6.35-1.93,13.77,13.77,0,0,1-4.12-4.59,9.93,9.93,0,0,1-1.41-4.22V10.74a7.31,7.31,0,0,1,1-3.6,13.27,13.27,0,0,1,2.66-3.28,14.48,14.48,0,0,1,3.49-2.24A7.82,7.82,0,0,1,54.77.78H85a6.43,6.43,0,0,1,2.86.78,11.41,11.41,0,0,1,2.92,2A11.22,11.22,0,0,1,92.87,6.1a4.63,4.63,0,0,1,.83,2.55v8.81A6.44,6.44,0,0,1,92.4,21.58ZM82.5,10.22a4,4,0,0,0-2.19-.68l-21.89,0a3.58,3.58,0,0,0-2.56,1.19,4.14,4.14,0,0,0-1.09,2.66v1.51H83.38l.05-2.76A2.36,2.36,0,0,0,82.5,10.22Z"/><path class="cls-1" d="M112.3,9.38a3.33,3.33,0,0,0-2.45,1.25,3.72,3.72,0,0,0-1.09,2.3l0,1.87h30v8.5h-30v14H98.49V10.58a7.78,7.78,0,0,1,1.56-4.43,14.24,14.24,0,0,1,4.07-3.8,10.1,10.1,0,0,1,5.1-1.51H139.4V9.38Z"/><path class="cls-1" d="M237.86,2.34h-2.93v9.43h-1.64V2.34h-2.92V.94h7.49Z"/><path class="cls-1" d="M249.45,11.77h-1.59l-.24-4.56c-.07-1.47-.15-3.14-.14-4.49h0c-.33,1.28-.75,2.66-1.21,4l-1.61,4.91h-1.23L241.9,6.86c-.44-1.42-.82-2.84-1.09-4.14h0c0,1.35-.12,3.06-.2,4.58l-.24,4.47H238.8L239.54.92h2L243.1,5.7c.4,1.33.73,2.53,1,3.72h0c.27-1.16.61-2.39,1-3.74L246.74.92h2.06Z"/></svg>