<?xml version="1.0" encoding="utf-8"?>
<!-- Generator: Adobe Illustrator 25.0.0, SVG Export Plug-In . SVG Version: 6.00 Build 0)  -->
<svg version="1.1" id="图层_1" xmlns="http://www.w3.org/2000/svg" xmlns:xlink="http://www.w3.org/1999/xlink" x="0px" y="0px"
	 viewBox="0 0 608.35 131.98" style="enable-background:new 0 0 608.35 131.98;" xml:space="preserve">
<style type="text/css">
	.st0{fill:#CC9933;}
	.st1{fill:#333333;}
</style>
<g>
	<g>
		<path class="st0" d="M74.08,91.38l-2.75,28.57H0v-4.15c9.61,1.04,13.94-3.29,13.04-12.98V46.72c0.45-9.35-3.67-13.67-12.35-12.98
			v-4.15h39.78v4.15c-8.23-0.69-12.12,3.46-11.65,12.46v69.59h17.83c10.51,1.74,18.06-6.75,22.64-25.45L74.08,91.38z"/>
		<path class="st0" d="M96.71,104.37V46.2c0.45-8.65-3.67-12.8-12.35-12.46v-4.15h72.02l2.05,21.81l-4.12,1.04
			c-3.2-13.84-10.98-20.08-23.32-18.7h-18.52v37.39h13.04c10.51,0.7,15.78-3.64,15.78-12.98h4.8v31.16h-4.8
			c-0.46-10.04-5.73-14.71-15.78-14.02h-13.04v40.51h21.27c9.6,1.74,17.15-5.36,22.64-21.29l4.12,0.52l-2.75,24.93H84.36v-4.15
			C93.04,116.14,97.16,112.34,96.71,104.37z"/>
		<path class="st0" d="M183.82,102.81V46.72c0.45-9.35-3.43-13.67-11.66-12.98v-4.15h70.65l2.74,22.85l-5.48,1.04
			c-3.21-14.54-10.29-21.11-21.27-19.73h-19.2v37.39h15.08c8.68,0.7,13.26-3.46,13.72-12.46h4.8v30.12h-4.8
			c-0.92-9.69-5.49-14.19-13.72-13.5H199.6v27c-0.93,9.7,3.42,14.2,13.03,13.5v4.15h-41.16v-4.15
			C180.16,116.14,184.27,111.82,183.82,102.81z"/>
		<path class="st0" d="M256.53,29.58h41.15v4.15c-9.15-0.69-13.49,3.99-13.03,14.02v55.05c-0.46,9.35,3.88,13.68,13.03,12.98v4.15
			h-41.84v-4.15c9.14,0.7,13.49-3.64,13.04-12.98V47.76c0.45-10.04-3.67-14.71-12.35-14.02V29.58z"/>
	</g>
	<g>
		<g>
			<path class="st1" d="M587.39,111.72c-0.65-0.59-0.87-0.9-1.54-1.48c-0.64-0.56-2.2-0.92-2.73-1.59c-0.58-0.73-1.3-1.48-1.65-2.34
				c-1.06-2.57-1.69-4.71-2.56-7.35c-0.87-2.61-1.11-5.98-1.73-8.65c-0.39-1.58-0.84-3.14-0.7-4.78c0.03-0.34-0.07-0.76-0.31-1.02
				c-0.32-0.36-0.83-0.61-1.3-0.95c-0.47,0.35-0.82,0.6-1.08,0.8c-0.18,0.31-0.03,0.31-0.03,0.4c0.02,3.29-0.34,6.5,0.11,9.78
				c0.31,2.2-0.46,4.1-0.75,6.25c-0.33,2.45-1.15,4.95-1.28,7.41c-0.06,1.1-0.65,1.84-1.33,2.38c-8.19,1.03-16.97-0.99-24.44-4.39
				c-1.24-0.56-2.46-1.17-3.65-1.83c-2.28-1.26-4.49-2.72-6.23-4.65c-2.15-2.39-3.54-5.36-4.48-8.41c-0.48-1.55-0.84-3.13-1.15-4.72
				c-0.33-1.76-0.95-3.64-0.39-5.42c0.39-1.25,0.68-2.64,1.2-3.84c0.59-1.37,1.64-2.47,2.84-3.32c0.95-0.67,1.6-1.54,2.14-2.48
				c0.36-0.63,0.36-1.16-0.11-1.76c-1.11-1.42-2.19-2.84-3.88-3.86c-1.76-1.05-3.43-2.22-5.12-3.33c-1.65,0.38-3.3-0.37-4.72,0.5
				c-0.41,0.25-0.45,2.1-0.57,2.56c-0.21,0.84-0.38,1.39-1.24,1.71c-1.38,0.51-2.76,1.02-4.14,1.54c-0.41,0.15-0.83,0.31-1.24,0.46
				c-1.5,0.56-3,1.12-4.5,1.67c-2.75,1.02-1.73-4.45-1.68-5.81c0.16-3.85,0.29-7.7,0.38-11.56c0.06-2.44,0.37-4.75,0.72-7.16
				c0.04-0.26,0.05-0.57-0.08-0.8c-1.05-1.76-1.92-3.61-3.6-5.04c-1.28-1.09-2.3-2.31-3.09-3.82c1.61-0.64,3.23-1.24,4.81-1.93
				c1.6-0.7,3.02-1.6,4.53-2.44c0.17-0.1,0.39-0.18,0.56-0.08c0.2,0.12,0.18,0.42,0.13,0.66c-0.32,1.5-0.5,2.98-0.59,4.51
				c-0.1,1.7-0.25,3.53,0.81,4.97c0.27,0.37,0.39,0.83,0.56,1.25c0.85,2.12,1.57,4.28,3.2,6.1c0.29,0.32,0.56,0.67,0.73,1.04
				c0.38,0.86,1.05,1.54,1.7,2.25c1.49,1.65,3.21,3.01,5.23,4.22c4.45,2.68,9.32,4.51,14.42,6c1.8,0.52,3.68,0.7,5.57,0.9
				c3.06,0.31,6.1,0.29,9.14-0.08c1.73-0.21,3.43-0.58,4.86-1.48c1.18-0.74,2.3-1.56,3.43-2.37c0.54-0.38,1.01-0.87,0.92-1.49
				c-0.15-1.13-0.42-2.18-1.32-2.95c-0.56-0.48-1.23-0.83-1.85-1.24c-2.2-1.42-3.88-3.55-5.13-5.85c-1.14-2.09-1.9-4.33-2.74-6.55
				c-0.16-0.42-0.33-0.85-0.62-1.19c-0.36-0.41-0.89-0.66-1.23-1.1c-0.3-0.38-0.41-0.88-0.62-1.31c-0.67-1.35-2.77-0.93-2.37,0.67
				c0.38,1.53,0.83,3.06,1.22,4.59c0.77,3.05,0.46,6.58,0.19,9.69c-0.01,0.16-0.03,0.34-0.13,0.47c-0.7,1-2.87,0.69-3.9,0.66
				c-4.44-0.16-10.05-0.26-13.85-2.9c-0.12-0.08-0.26-0.17-0.41-0.19c-3.01-0.49-4.76-4.6-5.92-7.02c-0.18-0.38-0.36-0.76-0.44-1.17
				c-0.08-0.43-0.06-0.87-0.02-1.3c0.22-2.79,0.7-5.56,1.43-8.26c0.16-0.59,0.34-1.2,0.74-1.67c0.95-1.13,2.78-1.13,4.03-1.81
				c1.26-0.68,2.28-1.69,3.19-2.78c0.83-1-1.33-3.21-1.87-3.86c-1.12-1.35-2.49-2.45-4.08-3.17c-1.02-0.46-2.11-0.77-3.05-1.38
				c-1.87-1.21-3.85-2.73-5.7-0.49c-0.54,0.66-1.05,1.36-1.41,2.1c-0.79,1.66-1.49,3.35-2.21,5.04c-0.23,0.54-0.42,1.1-0.59,1.54
				c-1.39,0.72-2.65,1.37-3.92,2.02c-0.18,0.09-0.38,0.16-0.57,0.23c-0.91,0.35-1.88,0.61-2.72,1.05c-2.87,1.51-5.85,2.81-8.93,4
				c-3.6,1.4-7.31,2.52-10.99,3.73c-1.02,0.34-2.12,0.54-3.21,0.69c-1.19,0.17-2.4,0.24-3.61,0.31c-0.75,0.04-1.36,0.17-1.45,0.88
				c0.21,0.8,0.89,1.12,1.63,1.4c2.07,0.78,4.2,0.53,6.31,0.21c3.74-0.58,7.36-1.53,10.84-2.85c0.59-0.23,1.18-0.38,1.89-0.15
				c0.11,0.1,0.3,0.21,0.38,0.36c1.3,2.37,1.62,4.45,1.46,7.08c-0.18,3.06-0.03,6.15-0.15,9.22c-0.24,6.14-0.77,12.27-1.57,18.36
				c-0.18,1.39-3.67,1.92-4.86,2.37c-1.03,0.39-3.42,1.78-3.35-0.65c0.05-1.58,0.18-3.13,0.3-4.71c0.23-3.08,0.31-6,0.53-9.08
				c0.21-2.97,0.15-5.96,0.68-8.85c0.21-1.14,2.28-3.44,1.41-4.29c-1.07-1.05-4.7-0.89-6.11-1.1c-0.43-0.06-4.03-1.14-3.42,0.76
				c0.34,2.35,0.89,3.95,0.99,5.13c0.15,1.86,0.45,4.93,0.4,6.48c-0.05,1.53-0.16,2.96,0.31,4.46c0.09,0.28,0.19,0.55,0.22,0.84
				c0.05,0.51-0.12,1.02-0.28,1.5c-0.6,1.87-0.96,3.82-1.08,5.79c-0.12,1.89-0.45,3.71-0.73,5.58c-0.06,0.41-0.28,0.93-0.64,1.15
				c-3.17,2.03-6.75,2.92-10.3,4.14c-3.88,1.33-7.76,2.67-11.64,4c-2.95,1.01-5.91,2.02-8.98,2.62c-1.57,0.31-3.17,0.5-4.77,0.52
				c-1.18,0.01-2.66-0.56-3.28,0.76c-0.18,0.39,0.25,1.42,0.49,1.75c0.44,0.61,1.3,1.1,1.95,1.45c1.43,0.78,3.07,1.16,4.69,1.05
				c1.34-0.09,2.63-0.5,3.92-0.87c2.66-0.78,5.35-1.46,8.01-2.26c3.59-1.07,7.11-2.36,10.59-3.72c1.01-0.39,7.94-3.94,8.29-2.02
				c0.14,0.78-0.48,1.54-0.78,2.2c-0.55,1.23-0.6,2.54-0.95,3.82c-0.47,1.72-1.48,3.28-1.99,5.01c-0.54,1.81-1,3.66-1.85,5.36
				c-1.55,3.11-2.89,6.28-4.96,9.1c-1.01,1.37-2.15,2.6-3.44,3.72c-0.86,0.75-2.95,1.59-2.95,2.91c1.43,0.6,3.08-0.14,4.26-1.15
				c1.18-1,2.14-2.29,3.48-3.06c0.53-0.31,1.12-0.53,1.63-0.87c0.63-0.41,1.14-0.98,1.61-1.57c1.29-1.61,2.33-3.4,3.37-5.19
				c3.88-6.65,7.81-13.43,9.56-20.93c0.2-0.86,0.37-1.74,0.72-2.55c0.49-1.12,0.82-1.16,1.95-1.4c2.07-0.43,4-1.32,5.94-2.12
				c0.4,0.29,0.71,0.52,1.11,0.81c-0.18,2.74-0.63,5.43-0.65,8.2c-0.01,2.96,0.14,5.92-0.13,8.87c-0.51,5.65-0.13,11.47-0.12,17.14
				c0,2.56,0.01,5.17,0.85,7.59c0.67,1.93,2.1,5.19,4.16,5.99c0.9,0.35,1.94,0.22,2.8-0.22c1.85-0.94,3.06-3.18,3.65-5.08
				c0.97-3.14,0.6-6.76,0.49-10c-0.12-3.54-0.39-7.08-0.64-10.62c-0.28-3.99-0.55-7.98-0.83-11.97c0-2.74-0.38-5.54-0.57-8.28
				c-0.07-1.01-0.65-3.17-0.24-4.09c0.63-1.43,4.31-1.57,5.65-2.17c1.02-0.45,5.62-3.99,6.26-2.4c0.22,0.53,0.21,1.2,0.24,1.76
				c0.25,4.37,1.22,8.56,2.03,12.84c0.8,3.83,1.74,7.67,3.41,11.23c0.71,1.51,1.56,2.96,2.56,4.3c1.56,2.09,3.49,3.89,5.51,5.54
				c6.21,5.07,13.47,8.82,21.14,11.13c3.5,1.05,7.08,1.81,10.71,2.26c1.79,0.22,3.59,0.37,5.4,0.45c1.76,0.07,3.57-0.33,5.33-0.52
				c1.64-0.18,3.05-0.92,4.46-1.57c0.6-0.28,1.43-1.09,1.97-1.43c0.72-0.46,0.98-1.14,1.71-1.67c1.12-0.83,1.71-1.87,2.44-2.99
				C588.68,113.9,588.55,112.78,587.39,111.72z"/>
			<path class="st1" d="M364.99,120.37c0.74-0.35,1.43-0.76,2.03-1.22c1.03-0.8,1.86-1.81,2.77-2.73c0.98-1,2.16-2.15,1.98-3.54
				c-0.05-0.39-0.21-0.76-0.37-1.12c-0.61-1.39-1.09-3.32-1.99-4.54c-0.76-1.03-1.77-0.42-2.28,0.52c-1.35,2.52-3.04,5.46-5.95,6.34
				c-0.31,0.09-0.63,0.16-0.95,0.09c-0.34-0.08-0.63-0.31-0.89-0.54c-0.53-0.45-1.07-0.9-1.6-1.35c-0.18-0.15-0.37-0.31-0.46-0.53
				c-0.09-0.21-0.07-0.46-0.05-0.69c0.13-1.8,0.06-3.61-0.19-5.39c-0.26-1.88-0.29-3.33,0.54-5.08c0.06-0.12,0.12-0.24,0.22-0.33
				c0.13-0.1,0.29-0.13,0.45-0.16c1.92,0,4.09-0.71,5.99-1.04c1.6-0.28,3.88-0.3,5.06-1.61c0.17-2.01-0.32-3.79-1.53-5.42
				c-0.78-0.08-1.44-0.3-2.08,0.1c-0.69,0.43-1.28,1.16-1.92,1.66c-1.31,1.03-2.77,1.93-4.41,2.3c-0.45,0.1-0.94,0.16-1.37,0.01
				c-1.37-0.48-0.65-3.39-0.46-4.47c0.33-1.9,1.06-3.71,2.25-5.24c-0.31-2.57-2.58-3.42-5.19-4.14c0.46-0.62,0.84-1.12,1.2-1.61
				c0.74,0,1.32,0.02,1.9,0c1.74-0.06,3.47-0.14,5.21-0.19c1.85-0.06,3.19-0.8,4.2-2.19c-0.03-6.44,0.23-12.96-0.69-19.29
				c1.29-1.45,2.44-2.73,3.58-4.01c-0.65-2.7-2.72-4.58-4.58-6.57c-0.31,0-0.57,0-0.87,0c-0.38,0.41-0.76,0.84-1.16,1.25
				c-1.44,1.5-2.84,3.02-4.69,4.18c-0.83,0.52-1.7,0.87-2.71,0.94c-0.94-1.57-1.12-2.04-0.81-3.23c0.52-2.01,1.08-4.02,1.73-6
				c0.35-1.07,0.63-2.08-0.15-3.01c0.7-0.88,1.56-1.38,2.62-1.59c2.52-0.51,5.04-0.52,7.61-0.47c0.93,0.02,2.01-0.01,2.6-0.73
				c0.61-0.76,0.35-1.89,0-2.8c-0.59-1.54-1.34-3.01-2.21-4.41c-0.23-0.38-0.49-0.76-0.88-0.98c-0.93-0.53-1.71,0.57-2.34,1.11
				c-0.95,0.83-1.89,1.66-2.88,2.44c-1.88,1.48-5.06,2.83-7.5,2.19c-0.52-0.13-1-0.56-1.01-1.1c-0.01-0.47,0.32-0.87,0.55-1.29
				c0.72-1.31,0.38-2.92,0.43-4.42c0.01-0.27,0.03-0.54,0.14-0.78c0.14-0.33,0.42-0.58,0.69-0.81c0.71-0.62,1.41-1.24,2.12-1.86
				c0.43-0.38,0.88-0.79,0.98-1.35c0.18-0.98-0.77-1.76-1.61-2.3c-1.59-1.03-3.17-2.06-4.76-3.08c-1.19-0.77-2.79-2.25-4.33-1.81
				c-2.11,1.96-4.77,3.42-7.52,4.71c-0.49,0.23,1.14,2.63,1.33,2.86c0.61,0.74,1.89,1.48,1.74,2.53c-0.34,2.37-0.19,4.64-0.1,7.01
				c0.06,1.81-1.1,3.18-2.85,3.64c-1.38-0.88-2.88,0.03-4.32-0.06c-3.65-1.72-7-3.79-11.09-4.92c-1.96,1.38-3.18,3.1-3.7,5.25
				c2.15,1.63,3.02,3.59,3.6,5.67c0.86,3.12,1.02,6.31,1.01,9.5c-0.01,9.9,0.03,19.81-0.02,29.71c-0.01,2.51-0.04,5.05-0.47,7.53
				c-0.61,3.45-1.49,6.87-2.47,10.27c-2.24,7.8-6.2,14.97-11.49,21.59c-1.87,2.34-3.9,4.58-5.93,6.95c0.02,0.35,0.05,0.78,0.07,1.2
				c0.69,0.2,1.12-0.07,1.51-0.37c1.23-0.92,2.48-1.82,3.64-2.8c2.77-2.36,5.24-4.95,7.36-7.75c2.2-2.91,4.29-5.88,6.31-8.87
				c1.58-2.33,2.9-4.79,3.83-7.37c2.39-6.62,3.85-13.4,4.53-20.3c0.06-0.57,0.23-1.13,0.35-1.75c0.71,0,1.33,0,2.08,0
				c0.42,0.25,0.93,0.56,1.51,0.91c-0.12,1.15-0.27,2.27-0.33,3.38c-0.08,1.52,0.18,3.02,0.12,4.54c-0.11,2.58-0.95,5.2-0.64,7.78
				c0.29,2.41-0.15,4.85-0.4,7.25c-0.27,2.61-0.52,5.22-1.05,7.79c-0.25,1.22-0.68,1.56-2.12,1.8c-0.8,0.13-1.58,0.33-1.99,0.98
				c-1.07,1.7-1.65,3.5-0.96,5.42c0.86,2.36,1.4,2.27,3.85,2.09c5.2-3.85,10-8.27,15.05-12.39c0-0.53,0-0.96,0-1.43
				c-1.68,0.15-3.28,0.3-4.71,0.43c-0.9-0.62-1.14-1.35-1.21-2.04c-0.23-2.06-0.18-4.12-0.05-6.19c2.24-1.59,4.89-2.39,7.46-3.31
				c0.36-0.13,0.79-0.11,1.3-0.18c0.05,0.47,0.11,0.81,0.11,1.16c0.01,1.4-0.03,2.79,0.01,4.19c0.11,3.64,0.22,7.28,0.42,10.91
				c0.05,0.92,0.36,1.86,0.74,2.74c0.66,1.52,1.96,2.54,3.82,2.97C358.21,122.18,362.05,121.75,364.99,120.37z M357.52,58.26
				c0.57,0.34,1.07,0.65,1.74,1.06c0.07,0.51,0.22,1.12,0.24,1.73c0.06,1.44,0.06,2.88,0.11,4.32c0.09,3.1,0.22,6.2,0.26,9.3
				c0.01,0.74-0.18,1.52-0.45,2.23c-0.27,0.72-0.92,1.08-1.93,0.79c-1-1.08-1.14-2.45-1.44-3.76c-0.4-1.71-0.73-3.45-0.9-5.18
				c-0.09-0.92,0.26-1.86,0.33-2.79c0.08-1.07,0.14-2.15,0.07-3.21c-0.06-0.89-0.31-1.76-0.49-2.75
				C355.85,59.44,356.66,58.87,357.52,58.26z M343.75,51.04c0.23-1.41,0.39-2.83,1.04-4.18c0.25-0.52,0.04-1.23-0.1-1.83
				c-0.13-0.56-0.46-1.09-0.73-1.7c0.3-0.37,0.63-0.77,0.9-1.1c1.34-0.47,2.09,0.28,2.94,0.77c0.78,0.44,0.97,1.09,0.95,1.87
				c-0.05,2.29,0,4.58-0.03,6.87c-0.01,0.53-0.1,1.07-0.21,1.59c-0.44,2.11-2.83,2.93-5.09,1.66
				C343.53,53.7,343.53,52.35,343.75,51.04z M344.06,62.32c-0.16-0.73-0.03-1.51-0.03-2.27c1.13-0.89,1.63-1.07,3.26-1.16
				c1,0.73,1.06,1.8,1.14,2.8c0.17,2.37,0.24,4.74,0.29,7.12c0.05,2.15,0.01,4.31,0.01,6.47c0,1.24-0.06,1.35-1.19,2.46
				c-0.76,0-1.59,0-2.45,0c-0.86-0.51-1.11-1.32-1.11-2.12c0.01-2.33,0.17-4.66,0.2-6.98C344.22,66.52,344.52,64.42,344.06,62.32z
				 M336.35,77.52c-1.28,0.47-2.64,0.43-4.18-0.05c-0.11-2.94-0.2-5.76-0.31-8.58c-0.08-2.02-0.14-4.03-0.25-6.04
				c-0.11-1.92,0.86-2.21,2.41-2.66c0.2-0.06,0.42-0.05,0.62-0.11c1.99-0.51,2.78,0.07,3.26,1.61c0.39,1.25,0.65,2.54,0.74,3.83
				c0.18,2.86,0.27,5.73,0.3,8.6C338.94,75.68,338.05,76.89,336.35,77.52z M338.85,54.88c-0.56,1.51-4.41,1.66-5.62,1.76
				c-1.01-0.43-1.66-1.18-1.59-2.32c0.04-0.72,0.3-1.41,0.41-2.13c0.47-3.15-2.25-8.18,2.71-8.74c0.84-0.1,1.79-0.19,2.34,0.57
				c0.25,0.35,0.38,0.78,0.5,1.2c0.78,2.86,1.05,5.84,1.31,8.8c0.02,0.27,0.05,0.56-0.04,0.82
				C338.86,54.85,338.86,54.87,338.85,54.88z M351.14,91.46c-0.64,1.34-0.37,2.75-0.54,4.12c0,0.04-0.06,0.07-0.17,0.17
				c-1.28-0.11-2.62-0.22-4.04-0.34c-0.9,0.73-1.85,1.51-2.84,2.32c-0.49,0-1,0-1.44,0c-0.71-0.44-0.75-1.02-0.75-1.62
				c0-1.3,0.07-2.61-0.02-3.91c-0.11-1.52,0.5-2.81,1.51-4.01c0.34-0.4,0.69-0.79,1.02-1.16c0.3-1.07-0.24-1.79-1.29-2.22
				c-1.03-0.43-2.11-0.79-3.27-1.22c0-0.52,0-1.08,0-1.77c1.62-0.43,3.35-0.46,5.05-0.65c1.71-0.19,3.42-0.39,5.13-0.59
				c0.75,0.98,1.15,1.93,1.18,2.98c0.03,0.94-0.04,1.89,0.02,2.83c0.09,1.47,0.24,2.94,0.37,4.42
				C351.07,91.03,351.23,91.28,351.14,91.46z"/>
			<path class="st1" d="M436.73,97.11c-0.65-0.5-1.27-1.08-2.2-1.28c-1.36,0.69-2.28,1.75-3.4,2.63c-0.61,0.48-1.28,0.93-2.01,1.27
				c-1.81,0.86-3.82,1.22-5.87,1.51c-0.76-0.4-1.26-0.93-1.3-1.73c-0.08-1.61-0.15-3.22-0.26-4.83c-0.19-2.73-0.41-5.46-0.6-8.19
				c-0.02-0.21,0.08-0.43,0.18-0.89c3.85-0.57,7.68,0.06,11.54-0.19c0.82-0.05,1.66-0.16,2.47,0.01c0.26,0.05,1.69,0.77,1.86,0.66
				c0.49-0.33,0.92-0.62,1.26-0.85c-0.14-0.98-0.25-1.78-0.36-2.57c-1.98-2.19-4.11-4.22-6.93-5.76c-0.59,0.32-1.17,0.62-1.73,0.95
				c-1.57,0.9-3.12,1.83-4.72,2.71c-0.83,0.46-2.75,0.9-3.05-0.43c-0.06-0.27-0.03-0.55-0.01-0.83c0.1-0.94,0.21-1.88,0.12-2.82
				c-0.07-0.73-0.46-1.63,0-2.3c1.1-1.57,1.69-2.96-0.24-4.08c-2.42-1.4-5.08-2.39-7.82-2.92c-1.49-0.29-1.04,2.08-0.96,3
				c0.13,1.43,0.21,2.88,0.54,4.28c0.4,1.73,0.08,3.4-0.18,5.08c-0.11,0.72-0.28,1.53-1.12,2.01c-2.29,0.07-4.59-0.34-6.79,0.31
				c-0.92-1.06-1.69-2.02-2.55-2.93c-0.84-0.89-1.53-1.96-3.03-2.29c-1.27,1.13-2.92,1.84-4.08,3.12c-1.03,1.14-2.61,1.79-4.35,2.01
				c-1.35,0.17-2.1-0.14-2.7-1.17c-0.16-0.28-0.27-0.58-0.45-0.95c0.49-1.03,1-2.11,1.53-3.22c-1.06-2.74-3.6-4.37-6.33-6.19
				c-0.2,0.58-0.36,0.94-0.44,1.31c-0.41,1.89-0.83,3.79-1.18,5.69c-0.67,3.59-1.77,7.1-3,10.57c-0.88,2.48-1.45,5.05-2.81,7.41
				c-0.6,1.05-1.12,2.13-1.65,3.2c-0.63,1.27-1.23,2.55-1.83,3.8c0.29,0.29,0.48,0.48,0.79,0.79c0.49-0.45,0.97-0.8,1.32-1.23
				c1.27-1.55,2.5-3.12,3.74-4.68c0.35-0.44,0.69-0.88,1.12-1.43c0.59,0.27,1.06,0.49,1.38,0.64c0.42,1.68,0.71,3.19,1.2,4.65
				c0.51,1.49,0.78,2.97,0.31,4.51c0.44,0.53,0.86,1.03,1.3,1.56c-0.19,1.11-0.73,2.07-1.38,3c-3.06,4.39-6.96,8.24-10.91,12.04
				c-0.34,0.33-0.81,0.57-1.24,0.83c-2.72,1.62-5.46,3.23-8.17,4.86c-0.66,0.4-1.24,0.89-1.85,1.34c1.3,0.07,2.35-0.32,3.39-0.75
				c4.02-1.65,7.54-3.91,11-6.29c3.11-2.14,5.86-4.52,8.24-7.22c3.08-3.48,5.94-7.1,8.48-10.89c2.11-3.16,4.16-6.35,5.37-9.87
				c0.34-0.99,0.73-1.97,1.24-2.91c1.08-1.99,2.22-3.96,3.39-5.91c0.38-0.63,0.78-1.29,1.77-1.64c0.39,0.09,0.88,0.21,1.35,0.32
				c0.16,0.04,0.59,1.72,0.77,1.97c1.09,1.5,2.37,0.16,3.65-0.03c0.89-0.14,1.96,0.24,2.83,0.39c0.23,0.04,0.45,0.08,0.66,0.18
				c1.18,0.61,1.03,2.78,1.11,3.87c0.09,1.23,0.03,2.46,0.22,3.7c0.28,1.91,0.13,3.86,0.09,5.8c-0.02,0.93-0.59,1.68-1.68,1.91
				c-1.21,0.25-2.81,0.63-3.79-0.41c-0.29-0.32-0.47-0.73-0.62-1.13c-0.74-1.98-0.94-4.16,0.67-5.77c-0.13-1.01-0.6-1.74-1.42-2.3
				c-1.03-0.7-2.17-1.24-3.35-1.63c-1.03-0.34-2.58-1.11-3.16,0.2c-0.45,1.03-0.19,2.17-0.07,3.24c0.14,1.27,0.21,2.54,0.21,3.82
				c0,1.39-0.07,2.78-0.22,4.16c-0.14,1.29-0.7,2.79-0.56,4.08c0.09,0.83,0.42,1.49,1.29,1.73c0.8,0.22,1.65,0.01,2.44-0.14
				c2.66-0.5,5.34-0.98,7.86-1.44c1.55,0.58,2.16,1.48,2.11,2.74c-0.07,1.47-0.04,2.93-0.07,4.4c-0.02,1.11-0.15,2.21-0.15,3.31
				c0,1.7,0.3,3.39,0.24,5.09c-0.03,1.05-0.2,2.11-0.14,3.16c0.04,0.69,0.11,1.32-0.02,2c-0.13,0.69-0.24,1.42-0.2,2.13
				c0.09,1.47,1.21,2.06,2.85,1.53c1.01-0.33,1.8-0.93,2.43-1.67c1.28-1.51,2.16-3.18,2.9-4.92c0.63-1.48,1.03-2.95,0.97-4.58
				c-0.13-3.73,0.03-7.47,0.06-11.2c0.01-1.26,0.53-2.17,1.73-2.59c0.88-0.31,1.81-0.51,2.75-0.53c1.14-0.03,2.26,0.33,3.41,0.36
				c1.3,0.03,2.56,0.07,3.85,0.24c1.36,0.18,2.71,0.44,4.09,0.41c1.19-0.03,2.24,0.5,3.45,0.53c0.21-0.32,0.53-0.68,0.68-1.08
				c0.68-1.84,0.44-3.59-1.14-5.03C439.54,99.29,438.13,98.21,436.73,97.11z M393.37,86.65c-0.68,1.92-1.38,3.84-2.11,5.75
				c-0.69,1.78-1.41,3.56-2.16,5.32c-0.19,0.43-0.56,0.81-0.88,1.27c-1.63-0.43-2.49-1.52-3.63-2.27c-1.12-0.74-2.09-1.64-3.25-2.57
				c0.33-1.59,0.73-3.08,1.87-4.29c0.47-0.5,0.84-1,1.18-1.56c0.36-0.6,0.69-1.22,1.13-1.77c0.81-1.01,1.15-1.09,2.71-0.83
				c1.68-0.61,3.4-1.14,5.28-0.12C393.46,85.97,393.48,86.33,393.37,86.65z"/>
			<path class="st1" d="M445.95,62.06c-0.79,0-1.58,0.13-2.37-0.01c-2.2-0.4-4.41-0.82-6.6-1.26c-0.95-0.19-1.86-0.42-2.78-0.73
				c-0.79-0.26-2.11-1.16-2.9-1.16c-1.33-0.63-2.74-1.14-4.16-1.62c-2.88-0.98-5.86-1.77-8.2-3.65c-1.11-0.89-2.33-1.69-3.4-2.62
				c-0.97-0.83-1.66-1.85-1.98-3.02c-0.14-0.51-0.18-0.98,0.49-1.37c0.81,0.03,1.7,0.07,2.6,0.1c0.67,0.02,1.34,0.01,2.01,0.01
				c1.95,0,3.91-0.06,5.85,0.02c1.68,0.07,3.35,0.29,5.02,0.45c1.72,0.17,3.44,0.32,4.96,0.98c1.9-0.77,2.44-2.09,2.37-3.7
				c-1.19-1.46-2.22-3-3.85-4.11c-1.19-0.81-2.43-1.58-3.67-2.35c-1.61-0.99-2.49-0.04-3.94,0.82c-1.64,0.98-3.33,1.88-5.05,2.7
				c-0.47,0.22-0.96,0.44-1.47,0.57c-0.8,0.19-1.64,0.13-2.46,0.11c-2.1-0.06-4.21,0.09-6.28,0.45c-1.05,0.18-2.15,0.42-3.16,0.1
				c-1.02-0.32-1.86-1.46-1.45-2.45c0.45-1.08,1.35-0.61,2.18-0.76c1.14-0.21,2.52-1.33,3.55-1.88c2.43-1.3,4.85-2.6,7.29-3.89
				c0.56-0.3,1.21-0.53,1.86-0.65c1.79-0.32,2.97-1.24,3.86-2.55c0.82-1.2,1.1-2.39,0.26-3.67c-0.56-0.86-1.04-1.76-1.62-2.61
				c-0.23-0.34-0.62-0.61-0.97-0.87c-1.49-1.12-3.23-0.78-4.99-0.68c-0.65,1.2-0.16,2.35-0.03,3.56c-0.54,0.7-1.13,1.42-1.67,2.18
				c-0.6,0.84-1.19,1.7-1.72,2.58c-1.09,1.81-3.04,3.08-4.19,4.86c-0.39,0.6-1.1,0.95-2.02,0.85c-1.73-0.19-0.73-6.31-0.68-7.35
				c0.03-0.65,0.06-1.3,0.24-1.92c0.39-1.36,1.47-2.05,2.14-3.2c0.49-0.84,0.33-2.1,0.04-3.02c-0.46-1.49-2.23-3.27-3.96-3.12
				c-1.78,0.15-3.35,0.3-4.91,0.42c-2.02,0.16-3.93,0.61-5.71,1.44c-0.93,0.43-1.73,1-2.26,1.82c0.96,1.3,2.56,0.28,3.86,0.97
				c0.82,2.91,0.95,5.87,1.22,8.87c0.19,2.08,0.38,4.16,0.57,6.24c0.17,1.82,0.66,3.93,0.1,5.72c-2.28,0.18-4.53,0.18-6.81,0.53
				c-2.37,0.36-4.75,0.82-7.16,0.83c-1.93,0.01-3.84-0.27-5.77-0.31c-1.02-0.02-2.01,0.15-3.02,0.19c-0.74,0.03-1.46-0.14-2.22-0.15
				c-0.93-0.01-1.63,0.29-1.98,1.16c2.04,2.12,4,4.33,6.43,6.21c0.55-0.24,0.97-0.41,1.39-0.6c2.44-1.13,4.93-2.17,7.64-2.76
				c0.71-0.16,1.41-0.35,2.22-0.56c0.47,0.32,0.94,0.64,1.41,0.97c-0.75,1.87-1.58,3.55-3.02,4.97c-0.31,0.3-0.61,0.63-0.8,0.99
				c-1.64,3.08-3.69,5.96-5.82,8.8c-2.13,2.83-4.06,5.78-6.86,8.2c-0.64,0.55-1.09,1.27-1.23,2.17c0.97,0.14,1.59-0.23,2.15-0.7
				c3.06-2.54,6.11-5.09,9.17-7.64c1.21-1,2.52-1.93,3.62-3.01c2.47-2.4,4.83-4.88,7.26-7.31c0.41-0.41,0.87-0.79,1.37-1.12
				c0.56-0.36,1.17-0.41,1.59,0.1c0.07,0.88,0.03,1.7,0.21,2.48c0.33,1.46,0.55,2.92,0.48,4.41c-0.13,2.88-0.27,5.77-0.42,8.65
				c-0.05,0.98-0.07,2.07,0.57,2.82c0.9,1.05,2.65,0.83,3.8,0.05c1.51-1.02,2.4-2.7,3.22-4.32c0.43-0.85,0.87-1.72,1.06-2.66
				c0.16-0.79,0.15-1.6,0.14-2.4c0-2.91-0.08-5.82-0.13-8.73c-0.04-2.41-0.71-5.78,1.08-7.74c0.83,0,1.61,0,2.36,0
				c0.61,0.24,0.88,0.63,1.04,1.15c0.31,1,0.65,1.99,1.08,2.95c1.7,3.85,3.26,7.57,6.16,10.73c1.3,1.41,2.75,2.68,4.24,3.9
				c2.9,2.38,7.85,5.23,11.07,1.81c0.86-0.91,1.94-1.65,3.19-2.18c2.78-1.19,5.85-2.08,8.89-1.81c0.4,0.03,0.81,0.08,1.19-0.04
				c1.38-0.45,0.24-1.62-0.7-1.64C446.05,62.06,446,62.06,445.95,62.06z"/>
			<path class="st1" d="M548.44,30.03c1.05,0.23,2.22,0.47,3.03,1.03c0.92,0.63,1.82,1.02,2.91,1.1c1.03,0.69,2.03,1.35,3.03,2.02
				c1.13,0.76,2.37,1.15,3.69,0.88c1.43-1.59,2.8-3.11,4.23-4.7c0-0.77,0.08-1.68-0.01-2.57c-0.23-2.3-1.33-3.93-4.11-4.52
				c-1.07-0.23-2.13-0.5-3.21-0.7c-2.12-0.39-4.27-0.52-6.42-0.34c-2.07,0.17-3.62,0.89-4.32,2.8c-0.5,1.37-0.51,2.7-0.47,4.05
				C547.17,29.65,547.72,29.88,548.44,30.03z"/>
			<path class="st1" d="M547.24,88.16c0.43,1.34,1.06,2.65,1.88,3.76c1.04,1.42,2.5,2.47,4,3.39c1.4,0.86,2.85,1.64,4.35,2.32
				c0.65,0.3,1.33,0.58,2.05,0.54c0.99-0.05,1.82-0.71,2.65-1.25c1.53-1,3.22-1.76,4.27-3.33c0.25-0.38,0.47-0.81,0.44-1.27
				c-0.05-0.84-0.85-1.41-1.53-1.92c-0.83-0.63-1.58-1.38-2.5-1.86c-0.78-0.41-1.65-0.61-2.5-0.83c-2.24-0.58-4.45-1.34-6.75-1.63
				c-2.38-0.3-4.42,0.22-6.72,0.72C546.98,87.26,547.1,87.71,547.24,88.16z"/>
			<path class="st1" d="M543.21,43.27c0.5-0.03,1.06,0.01,1.5,0.19c0.7,0.28,1.35,0.68,1.99,1.07c1.07,0.67,2.13,1.34,3.76,1.15
				c0.98-0.97,1.24-2.17,1.65-3.32c0.61-1.72,0.18-3.27-0.71-4.81c-0.57-0.98-1.49-1.53-2.7-1.66c-0.82-0.09-1.74-0.13-2.5,0.11
				c-1.5,0.46-3.01,0.3-4.52,0.33c-0.42,0.01-0.85-0.03-1.27-0.01c-1.71,0.09-2.58,1.06-2.19,2.47c0.12,0.43,0.35,0.84,0.5,1.19
				c-0.09,0.38-0.16,0.68-0.22,0.94C539.65,42.83,540.85,43.4,543.21,43.27z"/>
			<path class="st1" d="M555.02,79.08c0.9,0.7,1.89,1.28,3.04,1.64c1.82,0.58,3.21,0.35,4.35-0.97c0.83-0.97,1.48-2.06,2.12-3.13
				c0.34-0.57,0.36-1.25-0.08-1.8c-0.41-0.51-0.88-1.03-1.44-1.41c-4.25-2.88-8.85-2.76-13.52-1.15c-0.4,0.53-0.11,0.87,0.16,1.21
				C551.22,75.49,552.91,77.43,555.02,79.08z"/>
			<path class="st1" d="M379.11,30.33c1.42,2.5,2.84,5,4.2,7.52c0.36,0.68,0.48,1.45,0.76,2.16c0.3,0.74,0.18,1.64,1.2,2.21
				c1.46,0.07,1.93-0.02,2.33-0.54c0.72-0.93,1.42-1.88,2.11-2.82c0.71-0.97,1.12-2.03,1.06-3.17c-0.13-2.07-1.36-3.61-3.28-4.82
				c-2.7-1.72-5.8-2.7-8.96-3.56c-0.32-0.09-0.7-0.01-1.1-0.01c-0.06,0.67,0.2,1.12,0.6,1.56
				C378.44,29.31,378.81,29.81,379.11,30.33z"/>
			<path class="st1" d="M476.49,53.69c-0.74,0.87-1.47,1.74-2.17,2.65c-0.26,0.33-0.41,0.78-0.62,1.18
				c0.22,0.25,0.35,0.45,0.47,0.51c1,0.51,1.1,0.73,1.73,1.36c0.24,0.24,0.48,0.46,0.71,0.71c1.84,1.95,5.73,1.42,6.61-2.14
				c0.5-2.03,0.95-4.07,1.37-6.12c0.12-0.58-0.04-1.15-0.51-1.54c-0.65-0.06-1.21,0.19-1.77,0.57c-0.46,0.31-0.98,0.54-1.54,0.6
				C478.75,51.69,477.75,52.21,476.49,53.69z"/>
		</g>
		<g>
			<g>
				<path class="st1" d="M582.01,26.25V14.42c0.11-1.94-0.85-2.83-2.87-2.69v-0.86h9.77c6.17,0,9.26,1.58,9.26,4.73
					c0,2.22-1.46,3.76-4.38,4.62l4.04,6.56c0.56,1.08,1.63,1.72,3.2,1.94v0.86h-6.23l-4.72-8.71h-4.04v5.27
					c-0.23,1.87,0.73,2.73,2.86,2.58v0.86h-9.77v-0.86C581.17,28.87,582.12,28.04,582.01,26.25z M586.06,20.01h2.69
					c3.59-0.07,5.39-1.5,5.39-4.3c0.11-2.72-1.8-4.05-5.73-3.98h-2.36V20.01z"/>
			</g>
			<path class="st1" d="M590.1,38.48c-10.06,0-18.25-8.19-18.25-18.25c0-10.06,8.19-18.25,18.25-18.25
				c10.06,0,18.25,8.19,18.25,18.25C608.35,30.29,600.16,38.48,590.1,38.48z M590.1,4.27c-8.8,0-15.96,7.16-15.96,15.96
				s7.16,15.96,15.96,15.96c8.8,0,15.96-7.16,15.96-15.96S598.9,4.27,590.1,4.27z"/>
		</g>
	</g>
</g>
</svg>
