<?xml version="1.0" encoding="utf-8"?>
<!-- Generator: Adobe Illustrator 25.0.0, SVG Export Plug-In . SVG Version: 6.00 Build 0)  -->
<svg version="1.1" id="图层_1" xmlns="http://www.w3.org/2000/svg" xmlns:xlink="http://www.w3.org/1999/xlink" x="0px" y="0px"
	 viewBox="0 0 742.66 742.79" style="enable-background:new 0 0 742.66 742.79;" xml:space="preserve">
<style type="text/css">
	.st0{fill:#CC9933;}
</style>
<g>
	<path d="M522.24,281.5c0,6.3,0,12.6,0,19.63c13.32,0,26.37,0,39.99,0c0,6.96,0,13.2,0,20.05c20.15,0,39.73,0,60.14,0
		c0,20.29,0,39.98,0,60.02c7.05,0,13.27,0,20.14,0c0-6.57,0-12.8,0-19.6c20.22,0,39.79,0,60.23,0c0-13.58,0-26.6,0-40.17
		c6.95,0,13.05,0,19.65,0c0-6.93,0-13.29,0-20.24c-13.11,0-26.04,0-39.52,0c0-6.79,0-13.04,0-19.99c-6.89,0-13.26,0-19.9,0
		c0-6.97,0-13.22,0-20.15c13.18,0,26.23,0,39.8,0c0-6.93,0-13.19,0-19.85c13.44,0,26.34,0,39.75,0c0,46.57,0,93.08,0,140.27
		c-6.42,0-12.65,0-19.25,0c0,13.58,0,26.48,0,40.08c6.34,0,12.58,0,19.27,0c0,13.71,0,26.72,0,40.39c-6.54,0-12.78,0-19.32,0
		c0,6.74,0,12.85,0,19.72c6.13,0,12.51,0,19.35,0c0,7.09,0,13.43,0,20.41c-6.51,0-12.75,0-19.33,0c0,6.85,0,13.07,0,19.99
		c6.44,0,12.68,0,19.33,0c0,13.59,0,26.49,0,40.06c-6.29,0-12.52,0-19.55,0c0,6.99,0,13.37,0,20.03c-7.05,0-13.28,0-19.86,0
		c0-6.42,0-12.65,0-19.55c6.38,0,12.61,0,19.31,0c0-7.02,0-13.38,0-19.92c-13.26,0-26.16,0-39.73,0c0,13.31,0,26.21,0,39.8
		c-6.89,0-13.12,0-19.73,0c0,20.27,0,39.84,0,60.17c6.39,0,12.76,0,19.46,0c0,20.33,0,39.91,0,60.27c-6.51,0-12.87,0-19.75,0
		c0,13.69,0,26.61,0,39.93c-20.1,0-39.67,0-59.79,0c0-6.28,0-12.62,0-19.64c6.25,0,12.49,0,19.4,0c0-6.87,0-13.1,0-19.97
		c6.9,0,13.14,0,19.79,0c0-13.69,0-26.72,0-40.07c-13.17,0-26.09,0-39.54,0c0,13.11,0,26.02,0,39.28c-7.03,0.45-13.57,0.88-20.1,1.3
		l0.15,0.15c0-13.43,0-26.86,0-41.02c-7.23,0-13.45,0-20.25,0c0-26.96,0-53.18,0-79.93c-20.26,0-39.93,0-60.3,0
		c0,6.4,0,12.62,0,19.22c-6.91,0-13.13,0-19.7,0c0-13.28,0-26.5,0-39.72l-0.14,0.12c6.52,0,13.05,0,19.24,0c0-7.45,0-13.67,0-20.42
		c-6.69,0-12.91,0-19.12,0c0-6.93,0-13.31,0-19.69l-0.11,0.1c6.39,0,12.78,0,19.22,0c0-7.37,0-13.71,0-20.13
		c-6.71,0-12.97,0-19.24,0l0.16,0.16c0-6.73,0-13.46,0-20.13c6.79,0,13.39,0,19.99,0c0,6.27,0,12.54,0,19.75c6.33,0,12.81,0,19.36,0
		c0,7.03,0,13.12,0,20.02c-6.57,0-12.94,0-19.54,0c0,7.03,0,13.23,0,20.03c1.99,0,3.6-0.01,5.21,0c18.29,0.09,36.57,0.19,54.86,0.28
		c0,6.41,0,12.83,0,19.5c13.64,0,26.53,0,40.2,0c0-13.35,0-26.38,0-39.94c20.35,0,39.92,0,59.77,0c0-6.89,0-13.22,0-19.53
		c-26.8,0-53.15,0-80.15,0c0,13.35,0,26.23,0,40.1c-7.09,0-13.53,0-19.96,0c-0.05-13.26-0.1-26.52-0.15-39.77l-0.1,0.13
		c6.68-0.48,13.36-0.97,20.05-1.46c0-13.23,0-26.12,0-39.57c-6.64,0-12.9,0-19.3,0c0-6.95,0-13.32,0-20.27c13.3,0,26.21,0,39.43,0
		c0-33.61,0-66.63,0-100.04c-6.54,0-12.75,0-19.74,0c0,26.65,0,53,0,79.86c-13.87,0-26.97,0-40.06,0c0-6.43,0-12.85,0-20.01
		c6.94,0,13.16,0,19.66,0c0-20.32,0-39.88,0-60.37c-6.59,0-12.96,0-19.9,0c0-7.01,0-13.11,0-19.56c-6.83,0-13.04,0-19.55,0
		c0,13.34,0,26.36,0,40.09c6.68,0,12.91,0,19.18,0c0,6.95,0,13.17,0,20.01c-6.68,0-12.93,0-19.81,0c0,6.86,0,13.1,0,19.84
		c-6.95,0-13.25,0-19.55,0c0-13.19,0-26.37,0-40c-7.49,0-13.76,0-20.02,0c0-6.58,0-13.17,0-19.82c-4.74-0.32-8.3-0.56-11.77-0.79
		c0-13.49,0-26.37,0-39.48c4.34,0,8.13,0,11.92,0c0,6.39,0,12.77,0,19.48c6.32,0,12.51,0,19.12,0c0-6.54,0-12.73,0-19.37
		c-6.46,0-12.84,0-19.23,0c0-6.6,0-13.21,0-20.5c-7.24,0-13.63,0-20.62,0c0-6.91,0-13.14,0-20.13c-13.62,0-26.63,0-40.32,0
		c0-20.69,0-40.61,0-60.53c0,0-0.13,0.13-0.13,0.13c6.6,0,13.2,0,20.66,0c0,7.19,0,13.53,0,19.95c6.95,0,13.03,0,19.93,0
		c0-6.66,0-13.02,0-19.44c7.06,0,13.28,0,20.28,0c0,6.74,0,13.09,0,19.45c6.89,0,12.98,0,19.78,0c0-6.56,0-12.8,0-19.95
		c7.29,0,13.89,0,20.5,0l-0.13-0.13c0,6.59,0,13.17,0,20.59c6.86,0,13.22,0,19.51,0c0,6.93,0,13.02,0,19.96c-6.67,0-13.02,0-19.84,0
		c0,7.09,0,13.33,0,19.6c-6.9,0-13.26,0-20.2,0c0-6.73,0-12.96,0-19.37c-13.48,0-26.37,0-39.65,0c0,6.69,0,13.04,0,20.01
		c6.8,0,13.18,0,20.03,0c0,6.87,0,13.1,0,19.79c3.45,0,6.42-0.04,9.39,0.01c10.3,0.18,20.6,0.39,30.9,0.59L522.24,281.5z
		 M683.13,441.83c0,27.17,0,53.56,0,80.01c6.67,0,12.91,0,19.81,0c0-26.74,0-53.12,0-80.12c6.89,0,13.13,0,19.68,0
		c0-6.88,0-13.12,0-19.9c-6.54,0-12.8,0-19.78,0c0-13.59,0-26.64,0-39.7c-13.75,0-26.75,0-40.31,0c0,6.68,0,12.76,0,19.49
		c-6.78,0-13.02,0-20.07,0c0,7,0,13.37,0,20.38c-7.05,0-13.28,0-20.05,0c0,13.6,0,26.53,0,40.12c-6.96,0-13.36,0-19.66,0
		c0,6.93,0,13.16,0,19.56c20.08,0,39.79,0,59.5,0c0-6.64,0-12.88,0-19.73c-6.63,0-12.88,0-19.42,0c0-6.87,0-13.1,0-20.17
		c6.6,0,12.95,0,20,0c0-7.06,0-13.29,0-19.73c13.62,0,26.52,0,39.53,0c0,6.68,0,13.02,0,19.79
		C695.74,441.83,689.62,441.83,683.13,441.83z M642.06,642.51c0-20.31,0-40,0-59.6c-20.07,0-39.62,0-59.19,0c0,20.11,0,39.77,0,59.6
		C602.86,642.51,622.28,642.51,642.06,642.51z"/>
	<path d="M220.21,180.56c20.4,0,40.8,0,61.21,0l-0.16-0.12c-0.07,19.8-0.14,39.61-0.19,59.41c0,0.25,0.38,0.51,0.57,0.74
		c6.29,0,12.55,0,19.37,0c0-6.59,0-12.85,0-19.34c13.6,0,26.62,0,39.8,0c0,13.33,0,26.22,0,39.36c-6.7,0-13.04,0-19.97,0
		c0-6.7,0-12.95,0-19.35c-6.83,0-13.06,0-19.49,0c0,6.62,0,12.85,0,19.74c6.59,0,12.83,0,19.22,0c0,4.19,0,7.72,0,11.33
		c-6.7,0-12.89,0-19.32,0c-0.19-3.96-0.36-7.38-0.53-10.88c-6.73,0-12.96,0-19.66,0c0,7.13,0,13.9,0,20.72
		c-11.82,10.89-7.26,25.4-8.65,39.1c-2.22,0-4.01-0.01-5.8,0c-15.48,0.11-30.95,0.23-46.43,0.35c0-6.7,0-13.39,0-19.99
		c-7.11,0-13.55,0-19.99,0c0.05-6.67,0.09-13.35,0.14-20.02c6.56-0.31,13.12-0.62,19.77-0.93c0-6.79,0-13.12,0-19.21
		c-6.72,0-12.93,0-19.65,0c0,7.05,0,13.66,0,20.28c-1.12-0.22-2.25-0.64-3.37-0.64c-10.97-0.05-21.95-0.06-32.92-0.01
		c-1.09,0-2.18,0.45-3.94,0.84c0,12.98,0,25.84,0,39.67c-7.14,0-13.56,0-19.98,0c0-6.57,0-13.13,0-20.15c-7.22,0-13.62,0-20.02,0
		l0.17,0.19c0-6.6,0-13.2,0-20.47c6.53,0,12.75,0,19.41,0c0-7.01,0-13.35,0-20.22c-6.5,0-12.74,0-19.34,0c0-6.76,0-12.99,0-20.38
		c6.74,0,13.32,0,19.91,0l-0.13-0.13c0,6.62,0,13.24,0,20.09c13.71,0,26.71,0,40.43,0c0-6.74,0-12.96,0-19.21
		c13.62,0,26.51,0,39.93,0c0,6.7,0,12.97,0,19.91c6.93,0,13.33,0,20.23,0c0,13.57,0,26.48,0,39.49c6.9,0,13.27,0,19.51,0
		c0-33.53,0-66.58,0-99.57c-6.72,0-12.95,0-19.81,0c0,13.31,0,26.21,0,39.44c-6.88,0-13.12,0-20.18,0c0-20.23,0-40.18,0-60.14
		L220.21,180.56z"/>
	<path d="M301.3,663.56c0,6.27,0,12.55,0,19.1c-7.13,0-13.26,0-20.17,0c0-6.37,0-12.74,0-19.43c-7.14,0-13.49,0-20.03,0
		c0,6.68,0,12.91,0,19.64c6.59,0,12.84,0,19.47,0c0,6.89,0,13.28,0,19.92c-6.4,0-12.67,0-19.51,0c0-6.31,0-12.69,0-19.48
		c-6.94,0-13.33,0-19.85,0c-0.48,6.95-0.95,13.84-1.42,20.73l0.05-0.08c-4.03-0.31-8.06-0.68-12.09-0.91
		c-2.12-0.12-4.25-0.02-7-0.02c0-6.64,0-12.89,0-19.61c-6.95,0-13.29,0-20.22,0c0,6.42,0,12.67,0,19.27c-13.49,0-26.4,0-39.77,0
		c0-6.37,0-12.59,0-19.59c12.99,0,26.03,0,39.4,0c0-7.01,0-13.25,0-20.04c-13.1,0-26.02,0-39.39,0c0-13.55,0-26.57,0-40.23
		c6.4,0,12.64,0,19.6,0c0-7.22,0-13.82,0-20.42l-0.16,0.15c6.7-0.05,13.41-0.1,20.11-0.15c0,6.58,0,13.16,0,20.38
		c-6.91,0-13.14,0-19.52,0c0,6.89,0,13.1,0,20.02c6.61,0,12.83,0,19.66,0c0,6.93,0,13.17,0,20.07c4.06,0,7.51-0.14,10.94,0.04
		c2.83,0.15,5.64,0.69,8.47,1.04c0.38,6.16,0.76,12.34,1.13,18.54c6.66,0,12.88,0,19.25,0c0-6.68,0-12.89,0-20.13
		c-7.11,0.59-13.78,1.13-20.45,1.68c0.26-8.79,0.57-17.59,0.76-26.38c0.11-4.76,0.02-9.53,0.02-15.02c6.89,0,13.11,0,20.15,0
		c0-13.74,0-26.75,0-39.84c13.73,0,26.61,0,40.17,0c0,6.61,0,12.85,0,19.74c13.92,0,27.19,0,40.45,0l-0.13-0.14
		c0,19.93,0,39.87,0,59.94c-7.26,0.47-13.65,0.89-20.04,1.3c0-6.76,0-13.52,0-20.94c-7.2,0-13.42,0-20.31,0c0-6.88,0-13.1,0-19.55
		c-7.02,0-13.36,0-19.71,0c0,6.75,0,12.96,0,19.75c6.68,0,12.91,0,19.77,0c0,6.82,0,13.05,0,19.49
		C288.16,662.82,294.73,663.19,301.3,663.56z"/>
	<path d="M0,0c46.73,0,93,0,139.75,0c0,46.64,0,93.14,0,140.04c-46.55,0-92.92,0-139.75,0C0,93.37,0,47,0,0z M20,119.95
		c33.5,0,66.52,0,99.78,0c0-33.41,0-66.42,0-99.7c-33.42,0-66.44,0-99.78,0C20,53.55,20,86.44,20,119.95z"/>
	<path d="M742.61,0.13c0,46.68,0,93.19,0,140.03c-46.66,0-92.9,0-139.68,0c0-46.63,0-93.13,0-140.03
		C649.42,0.13,695.8,0.13,742.61,0.13z M722.55,20.28c-33.44,0-66.47,0-99.63,0c0,33.43,0,66.43,0,99.65c33.47,0,66.48,0,99.63,0
		C722.55,86.48,722.55,53.45,722.55,20.28z"/>
	<path d="M0.02,742.91c0-46.63,0-93.02,0-139.87c46.49,0,92.87,0,139.74,0c0,46.47,0,92.98,0,139.87
		C93.2,742.91,46.83,742.91,0.02,742.91z M20.07,622.94c0,33.62,0,66.64,0,99.78c33.48,0,66.52,0,99.68,0c0-33.46,0-66.48,0-99.78
		C86.41,622.94,53.49,622.94,20.07,622.94z"/>
	<path d="M100.42,441.38c-6.59-0.08-13.17-0.16-19.77-0.22c-0.37-6.35-0.72-12.71-1.08-19.01c-6.68,0-12.89,0-19.29,0
		c0,6.64,0,12.84,0,19.96c7.09-0.37,13.8-0.73,20.5-1.08c-0.45,6.76-0.89,13.51-1.39,20.98c-6.4,0-12.64,0-19.34,0
		c0,13.48,0,26.26,0,39.6c-13.47,0-26.49,0-40.15,0c0-6.17,0-12.4,0-19.4c-6.96,0-13.32,0-19.98,0c0-7,0-13.22,0-20.11
		c13.22,0,26.12,0,39.79,0c0-20.36,0-40.08,0-60.31c6.84,0,12.93,0,19.59,0c0-13.52,0-26.52,0-40.16c-6.25,0-12.48,0-19.14,0
		c0-6.84,0-13.06,0-20.05c6.26,0,12.47,0,19.21,0c0-6.95,0-13.16,0-20.09c-6.16,0-12.39,0-19.07,0c0-6.91,0-13.13,0-19.82
		c12.99,0,26.01,0,39.67,0c0,6.43,0,12.67,0,19.93c7.23,0,13.83,0,20.44,0l-0.17-0.16c0,13.2,0,26.41,0,40.21
		c-7.34,0-13.42,0-19.71,0c0,13.59,0,26.55,0,39.77c20.33,0,40.1,0,59.86,0c0,6.58,0,13.15,0,20.5c-13.97,0-26.95,0-40.15,0
		c0,7.08,0,13.36,0,19.64L100.42,441.38z"/>
	<path d="M482.41,562.45c-6.63,0-13.25,0-20.6,0c0,6.71,0,12.95,0,19.61c-6.95,0-13.17,0-20.01,0c0-13.04,0-25.79,0-39.15
		c-6.78,0-12.96,0-19.99,0c0,32.88,0,65.9,0,99.63c-7.02,0-13.24,0-19.91,0c-0.18,2.62-0.42,4.56-0.42,6.49
		c-0.03,16.49,0,32.98-0.04,49.48c0,1.81-0.33,3.61-0.5,5.41c0.01-0.01,0.15-0.15,0.15-0.15c-6.4-0.38-12.81-0.77-19.4-1.16
		c0-19.82,0-39.5,0-59.79c6.59,0,12.82,0,19.39,0c0-6.82,0-13.04,0-20.51c-13.44,0-26.67,0-39.91,0c0,0,0.15,0.16,0.15,0.16
		c0.02-6.68,0.03-13.37,0.05-20.05l-0.14,0.14c13.24,0,26.47,0,39.92,0c0-7.02,0-13.1,0-20.12c-6.63,0-12.98,0-19.31,0
		c0-7.17,0-13.38,0-20.28c6.7,0,12.94,0,19.11,0c0-6.94,0-13.15,0-20.05c-6.7,0-12.93,0-19.16,0c0-6.93,0-13.15,0-20.04
		c13.36,0,26.26,0,39.84,0c0-6.9,0-13.15,0-20.02c6.93,0,13.19,0,20.18,0c0-7.01,0-13.39,0-19.68c6.99,0,13.21,0,20.09,0
		c0,6.7,0,12.94,0,20.22c7.28,0,13.88,0,20.49,0l-0.16-0.16c0.01,6.71,0.02,13.42,0.02,20.13c0,0,0.11-0.1,0.11-0.1
		c-6.58,0-13.17,0-20.23,0c0,6.6,0,12.92,0,19.83c6.59,0,12.82,0,20.11,0c0,7.14,0,13.71,0,20.28L482.41,562.45z"/>
	<path d="M582.24,160.58c6.45,0,12.9,0,20.04,0c0,6.77,0,12.98,0,19.89c6.9,0,13.12,0,20.01,0c0,6.9,0,13.11,0,20.16
		c7.02,0,13.39,0,20.05,0c0,33.87,0,66.88,0,100.22c-13.28,0-26.18,0-39.66,0c0-13.13,0-26.02,0-39.41c-6.91,0-13.26,0-20.23,0
		c0,6.22,0,12.46,0,19.24c-2.32,0.14-4.08,0.33-5.84,0.33c-16.48,0.04-32.96,0.04-49.43,0.08c-1.64,0-3.29,0.25-4.93,0.39
		c0,0,0.16,0.1,0.16,0.1c0-6.74,0-13.48,0-20.87c20.19,0,39.88,0,59.62,0c0-13.96,0-27.25,0.01-40.53
		c6.82,0.03,13.63,0.05,20.45,0.07c0,6.74,0,13.48,0,20.16c6.98,0,13.2,0,19.6,0c0-6.65,0-12.85,0-20.03c-6.84,0-13.28,0-19.73,0
		c0-6.39,0-12.79,0-19.27c-6.99,0-13.19,0-20.17,0c0,6.68,0,12.94,0,19.2c-6.52,0-13.04,0-20.17,0c0-6.7,0-12.91,0-19.92
		c-13.67,0-26.71,0-39.75,0l0.13,0.13c0-6.41,0-12.83,0-19.88c6.55,0,12.77,0,19.82,0c0-6.95,0-13.3,0-20.11c7.28,0,13.73,0,20.18,0
		l-0.14-0.14c0,6.57,0,13.15,0,19.76c7.06,0,13.27,0,20.14,0c0-6.86,0-13.31,0-19.76L582.24,160.58z"/>
	<path d="M361.24,120.59c6.45,0,12.89,0,19.96,0c0,13.06,0,25.95,0,39.98c27.12,0,53.62,0,80.12,0c0,0-0.1-0.14-0.1-0.14
		c0,6.53,0,13.06,0,20.24c-13.28,0-26.13,0-39.99,0c0,7.06,0,13.47,0,19.88l0.13-0.13c-13.1,0-26.2,0-39.56,0
		c0,13.96,0,26.98,0,40.65c6.67,0,12.92,0,19.32,0c0,6.89,0,13.13,0,20.09c-6.72,0-13.09,0-19.51,0c-0.21,4.15-0.38,7.58-0.56,11.25
		c-6.68,0-12.87,0-19.25,0c0-3.95,0-7.44,0-11.67c6.74,0,12.95,0,19.11,0c0-6.96,0-13.17,0-20.1c-6.67,0-12.89,0-19.78,0
		c0-13.6,0-26.48,0-40.06c-6.93,0-13.15,0-19.56,0c0-6.92,0-13.12,0-20.08c6.63,0,12.83,0,19.81,0c0-20.53,0-40.3,0-60.07
		L361.24,120.59z"/>
	<path d="M542.41,120.6c-0.11-18.47-0.23-36.94-0.32-55.41c-0.04-8.14-0.01-16.27-0.01-25.14c-6.76,0-13.13,0-19.79,0
		c0-13.66,0-26.58,0-39.89c13.12,0,26.02,0,39.75,0c0,6.4,0,12.76,0,19.72c7.07,0,13.31,0,19.91,0c0,13.51,0,26.4,0,39.94
		c-6.43,0-12.67,0-19.33,0c0,6.88,0,13.12,0,20.19c6.31,0,12.68,0,19.61,0c0,27.41,0,53.99,0,80.57c0,0,0.14-0.15,0.14-0.15
		c-6.71,0-13.42,0-20.14,0l0.14,0.14c0-13.21,0-26.41,0-40.13c-7.32,0-13.73,0-20.14,0L542.41,120.6z"/>
	<path d="M723.77,703.95c-0.28-4.25-0.61-8.51-0.82-12.76c-0.12-2.47-0.02-4.94-0.02-8.2c-6.84,0-13.21,0-20.14,0
		c0-20.37,0-39.94,0-60.14c-6.8,0-13.04,0-19.67,0c0-6.87,0-13.11,0-20.11c13.04,0,26.07,0,39.71,0c0-6.99,0-13.26,0-19.9
		c6.86,0,13.08,0,19.74,0c0,19.94,0,39.62,0,59.96c-6.5,0-12.75,0-19.31,0c0,6.91,0,13.16,0,20.04c6.41,0,12.65,0,19.31,0
		c0,13.63,0,26.64,0,39.69c-6.47,0.46-12.69,0.89-18.91,1.33L723.77,703.95z"/>
	<path d="M120.39,562.44c-6.58,0-13.17,0-20.37,0c0-7.09,0-13.32,0-20.11c-6.87,0-13.11,0-19.71,0c0-26.91,0-53.24,0-80.21
		c6.28,0,12.51,0,20.1,0c0-7.31,0-14.02,0-20.74c0,0-0.17,0.18-0.17,0.18c13.21,0,26.43,0,39.5,0c0,7.51,0,13.72,0,20.63
		c-6.73,0-12.95,0-19.76,0c0,6.95,0,13.17,0,19.94c-6.86,0-13.11,0-19.66,0c0,13.48,0,26.39,0,40.34c13.53,0,26.8,0,40.06,0
		c-0.05,6.7-0.09,13.4-0.14,20.11c0,0,0.13-0.13,0.13-0.13c-6.55,0-13.1,0-20.13,0c0,7.25,0,13.69,0,20.13L120.39,562.44z"/>
	<path d="M261.38,19.49c-0.2,11.47-0.4,22.95-0.59,34.42c-0.03,1.8,0,3.61,0,5.99c-6.66,0-12.92,0-19.85,0c0,6.8,0,13.03,0,20
		c-13.52,0-26.4,0-40.04,0c0,6.91,0,13.11,0,19.81c-6.98,0-13.19,0-20.1,0c0-6.05,0-12.27,0-19.3c-7,0-13.36,0-20.09,0
		c0-7.02,0-13.23,0-20.14c19.89,0,39.45,0,59.64,0c0-7.42,0-14.15,0-20.88l-0.11,0.14c6.68,0,13.35,0,20.11,0c0-7,0-13.56,0-20.12
		l-0.13,0.08c7.1,0.03,14.19,0.06,21.29,0.09L261.38,19.49z"/>
	<path d="M140.38,180.4c-13.12,0-26.24,0-40.22,0c0,20.44,0,40.15,0,60.17c-6.95,0-13.05,0-20.04,0c0-6.35,0-12.72,0-19.7
		c-13.77,0-26.68,0-39.84,0c-0.38-7.2-0.73-13.78-1.09-20.36c0,0-0.13,0.12-0.13,0.12c13.28,0,26.55,0,40.67,0
		c0-13.31,0-26.3,0-39.69c20.39,0,39.93,0,60.5,0c0,6.48,0,13.04,0,19.6L140.38,180.4z"/>
	<path d="M360.88,722.96c0,7,0,13.22,0,19.88c-26.59,0-52.92,0-79.6,0c0-6.43,0-12.66,0-19.52c6.34,0,12.58,0,19.56,0
		c0-13.62,0-26.65,0-40.04c6.98,0,13.21,0,20.02,0c0,13.12,0,26.01,0,39.68C334.43,722.96,347.44,722.96,360.88,722.96z"/>
	<path d="M-0.12,241.1c13.44,0,26.19,0,39.46,0c0,13.24,0,26.27,0,39.87c-6.25,0-12.5,0-19.43,0c0,6.77,0,13.01,0,19.71
		c-7.03,0-13.35,0-20.03,0C-0.12,280.79-0.12,261.25-0.12,241.1z"/>
	<path d="M441.16,39.59c6.6,0,13.2,0,20.51,0c0-13.28,0-26.31,0-39.58c13.62,0,26.52,0,39.83,0c0,13.21,0,26.24,0,39.74
		c-13.1,0-26.01,0-39.61,0c0,6.79,0,13.16,0,19.92c-6.9,0-13.12,0-20.63,0c0-6.76,0-13.48,0-20.19
		C441.27,39.47,441.16,39.59,441.16,39.59z"/>
	<path d="M380.95,39.07c0.14-10.61,0.28-21.22,0.41-31.83c0.03-2.28,0-4.55,0-7.15c13.48,0,26.34,0,40.03,0c0,6.48,0,12.82,0,19.73
		c7.04,0,13.27,0,19.77,0c0,6.98,0,13.37,0,19.76c0,0,0.11-0.12,0.11-0.12c-13.9,0.19-27.81,0.51-41.71,0.5
		c-6.24,0-12.47-0.66-18.71-1.01L380.95,39.07z"/>
	<path d="M461.22,723.48c0,6.41,0,12.82,0,19.5c-26.33,0-52.57,0-79.34,0c0-6.44,0-12.77,0-19.79c6.42,0,12.64,0,19.23,0
		c0-6.93,0-13.18-0.01-19.43c-0.01,0.01-0.15,0.16-0.16,0.16c6.79-0.11,13.59-0.22,20.39-0.34c0,0-0.1-0.14-0.1-0.14
		c0,6.36,0,12.72,0,19.68c3.9,0,6.67-0.03,9.44,0.01c10.22,0.13,20.44,0.29,30.67,0.43L461.22,723.48z"/>
	<path d="M702.77,180.93c7.07,0,13.29,0,20.11,0c0,6.55,0,12.78,0,19.65c6.81,0,13.04,0,19.7,0c0,6.85,0,13.07,0,19.77
		c-26.49,0-52.82,0-79.53,0c0-6.44,0-12.67,0-19.52c13.1,0,25.99,0,39.72,0C702.77,193.9,702.77,187.55,702.77,180.93z"/>
	<path d="M301.64,59.1c1.38,0.3,2.75,0.85,4.13,0.86c9.83,0.09,19.66,0.05,29.48,0.09c1.78,0.01,3.57,0.16,5.99,0.27
		c0,13.71,0,26.98,0,40.26c0,0,0.15-0.15,0.15-0.15c-19.93,0-39.86,0-60.14,0c0-7.08,0-13.32,0-20.21c6.43,0,12.66,0,19.18,0
		c0.47-7.51,0.91-14.4,1.33-21.27C301.75,58.97,301.64,59.1,301.64,59.1z"/>
	<path d="M541.84,623c0,13.44,0,26.2,0,39.74c-6.59,0-12.94,0-19.86,0c0,7.03,0,13.28,0,19.86c-6.8,0-13.02,0-19.65,0
		c0-19.95,0-39.62,0-59.6C515.55,623,528.43,623,541.84,623z"/>
	<path d="M18.84,542.95c6.74-0.35,13.48-0.69,20.87-1.07c0-6.45,0-12.69,0-19.3c6.86,0,13.06,0,20,0c0,6.47,0,12.71,0,19.54
		c6.94,0,13.19,0,19.85,0c0,6.96,0,13.33,0,20.11c-20.4,0-40.49,0-60.57,0l0.16,0.16c-0.06-6.52-0.11-13.04-0.17-19.56
		C18.96,542.82,18.84,542.95,18.84,542.95z"/>
	<path d="M160.38,582.41c-13.08,0-26.16,0-39.99,0c0-6.91,0-13.44,0-19.98c0,0-0.14,0.14-0.14,0.14c6.41,0,12.81,0,20.13,0
		c0-7.31,0-13.72,0-20.13l-0.13,0.13c13.21,0,26.42,0,39.78,0c0,6.85,0,13.05,0,19.98c-6.6,0-12.81,0-19.79,0
		c0,7.16,0,13.58,0,20.01L160.38,582.41z"/>
	<path d="M361.68,100.88c0-6.59,0-13.18,0-20.26c13.2,0,26.18,0,39.77,0c0,13.13,0,26.01,0,39.55c6.81,0,13.03,0,19.69,0
		c0,6.87,0,13.08,0,19.79c-6.23,0-12.45,0-19.48,0c0-6.34,0-12.69,0-19.82c-7.16,0-13.53,0-20.41,0c0-6.87,0-12.96,0-19.38
		c-6.92,0-13.31,0-19.7-0.01C361.53,100.75,361.68,100.88,361.68,100.88z"/>
	<path d="M281.42,180.55c-0.17-6.63-0.45-13.26-0.49-19.89c-0.08-13.13-0.02-26.25-0.02-39.87c6.61,0,12.82,0,19.88,0
		c0,6.26,0,12.61,0,19.79c7.42,0,14.02,0,20.62,0l-0.17-0.16c0,6.57,0,13.13,0,20.34c-7.35,0-13.57,0-19.64,0c0,6.94,0,13.2,0,19.45
		l0.13-0.14c-6.83,0.12-13.65,0.23-20.48,0.35L281.42,180.55z"/>
	<path d="M421.33,703.59c0-13.27,0-26.54,0-40.28c7.01,0,13.35,0,20.34,0c0,6.53,0,12.77,0,19.57c6.86,0,13.11,0,19.5,0
		c0,7.3,0,14.03,0,20.76l0.2-0.2c-13.38,0.01-26.76,0.01-40.14,0.02L421.33,703.59z"/>
	<path d="M461.31,140.42c-6.28,0-12.55,0-19.28,0c0-6.87,0-13.08,0-19.97c6.56,0,12.77,0,19.34,0c0-6.9,0-13.14,0-20.02
		c-6.27,0-12.51,0-19.28,0c0-6.97,0-13.3,0-19.95c6.54,0,12.79,0,19.59,0c0,6.43,0,12.66,0,19.62c6.89,0,13.26,0,20.59,0
		c0,7.31,0,13.9,0,20.49l0.11-0.12c-6.7,0-13.39,0-21.17,0c0,7.06,0,13.59,0,20.12L461.31,140.42z"/>
	<path d="M723.68,703.86c-0.34,6.2-0.67,12.41-1.04,19.21c7.08,0,13.34,0,20.02,0c0,6.8,0,13.03,0,19.71c-13,0-25.9,0-39.33,0
		c0-12.77,0-25.81,0-40.08c6.77,0.4,13.6,0.81,20.43,1.23C723.77,703.95,723.68,703.86,723.68,703.86z"/>
	<path d="M361.38,602.42c-13.38,0-26.75,0-40.13,0c0,0,0.13,0.14,0.13,0.14c-0.05-6.71-0.1-13.41-0.15-20.12c6.42,0,12.85,0,20.02,0
		c0-7.13,0-13.57,0-20c6.4,0,12.8,0,19.98,0c0,13.81,0,26.97,0,40.13L361.38,602.42z"/>
	<path d="M582.51,703.75c0,12.92,0,25.84,0,39.13c-7.05,0-13.26,0-20.18,0c0-6.51,0-12.73,0-19.61c-6.92,0-13.14,0-19.79,0
		c0-6.87,0-13.07,0-19.85c2.63-0.12,5.23-0.39,7.82-0.34c10.76,0.22,21.53,0.53,32.3,0.81C582.66,703.9,582.51,703.75,582.51,703.75
		z"/>
	<path d="M220.34,39.4c-13.06,0-26.12,0-39.84,0c0-6.68,0-13.42,0-20.15l-0.14,0.14c13.32,0.06,26.65,0.11,39.97,0.17l-0.12-0.15
		c0,6.71,0.01,13.43,0.01,20.14L220.34,39.4z"/>
	<path d="M301.22,39.27c0.13,6.62,0.26,13.24,0.4,19.84c0.01-0.02,0.12-0.15,0.14-0.16c-3.9,0.36-7.8,0.83-11.72,1.08
		c-2.78,0.17-5.57,0.03-8.97,0.03c0,6.82,0,13.06,0,19.71c-6.97,0-13.32,0-20,0c0-6.55,0-12.78,0-19.56c6.5,0,12.74,0,19.74,0
		c0-6.88,0-13.24,0-19.78c7.34-0.37,13.93-0.7,20.52-1.03C301.33,39.4,301.22,39.27,301.22,39.27z"/>
	<path d="M39.19,200.51c-6.26,0-12.52,0-19.14,0c0-6.78,0-12.98,0-19.82c6.56,0,12.79,0,19.63,0c0-6.84,0-13.08,0-19.74
		c6.82,0,13.02,0,19.73,0c0,6.21,0,12.41,0,19.36c-6.21,0-12.57,0-19.06,0c-0.46,7.25-0.87,13.77-1.29,20.3
		C39.06,200.62,39.19,200.51,39.19,200.51z"/>
	<path d="M301.33,39.4c0-12.95,0-25.91,0-39.26c6.41,0,12.65,0,19.33,0c0,13.1,0,26.14,0,40.08c-6.66-0.32-13.05-0.63-19.44-0.94
		C301.22,39.27,301.33,39.4,301.33,39.4z"/>
	<path d="M521.63,703.47c0,13.35,0,26.24,0,39.46c-6.59,0-12.81,0-19.38,0c0-13.15,0-26.06,0-39.46
		C508.56,703.47,514.92,703.47,521.63,703.47z"/>
	<path d="M482.27,120.57c6.27,0,12.54,0,19.44,0c0,6.4,0,12.63,0,20.02c7.3,0,14.01,0,20.72,0l-0.18-0.17c0,6.58,0,13.16,0,19.65
		c-7.35,0-13.59,0-20.44,0c0-6.71,0-12.97,0-19.64c-6.93,0-13.24,0-19.55,0l0.15,0.13c-0.01-6.7-0.02-13.41-0.03-20.11
		L482.27,120.57z"/>
	<path d="M239.79,704.05c6.71-0.49,13.41-0.97,20.55-1.49c0,13.95,0,26.98,0,40.34c-6.33,0-12.57,0-19.68,0c0-2.71,0-5.48,0-8.25
		c0.01-8.49,0.06-16.98-0.02-25.47c-0.02-1.75-0.51-3.49-0.79-5.23C239.85,703.97,239.79,704.05,239.79,704.05z"/>
	<path d="M461.17,703.64c6.72,0,13.44,0,20.4,0c0,6.28,0,12.5,0,19.84c-6.92,0-13.64,0-20.36,0c0,0,0.12,0.09,0.12,0.09
		c0.01-6.71,0.02-13.42,0.03-20.13L461.17,703.64z"/>
	<path d="M380.86,38.96c0,6.76,0,13.53,0,20.69c-6.35,0-12.7,0-19.26,0c0-6.59,0-12.81,0-19.18c6.68-0.47,13.03-0.91,19.37-1.37
		C380.95,39.07,380.86,38.96,380.86,38.96z"/>
	<path d="M80.97,259.85c-6.79,0.56-13.59,1.11-20.8,1.7c0-7.35,0-13.57,0-20.25c6.43,0,12.62,0,19.2,0
		c0.5,6.06,1.01,12.33,1.52,18.59L80.97,259.85z"/>
	<path d="M261.5,19.6c-0.34-6.38-0.68-12.77-1.03-19.51c7.11,0,13.34,0,20.01,0c0,6.53,0,12.87,0,19.39c-6.56,0-12.83,0-19.1,0
		C261.38,19.49,261.5,19.6,261.5,19.6z"/>
	<path d="M663.2,321.61c6.39,0,12.61,0,19.24,0c0,6.59,0,12.94,0,19.54c-6.5,0-12.6,0-19.24,0
		C663.2,334.62,663.2,328.3,663.2,321.61z"/>
	<path d="M663.02,160.88c6.57,0,12.79,0,19.41,0c0,6.57,0,12.93,0,19.36c-6.61,0-12.83,0-19.41,0
		C663.02,173.61,663.02,167.42,663.02,160.88z"/>
	<path d="M461.32,160.57c0-6.72-0.01-13.44-0.01-20.16c0,0-0.1,0.15-0.1,0.15c7.07,0,14.13,0,21.2-0.01l-0.15-0.13
		c0,6.55,0,13.1,0,20c-7.81,0-14.42,0-21.04,0L461.32,160.57z"/>
	<path d="M220.34,19.56c0-6.42,0-12.83,0-19.5c7.25,0,13.47,0,19.87,0c0,6.67,0,13.07,0,19.46c0,0,0.13-0.08,0.13-0.08
		c-6.71-0.01-13.42-0.02-20.12-0.02C220.22,19.4,220.34,19.56,220.34,19.56z"/>
	<path d="M180.5,19.25c-6.41,0.29-12.83,0.59-19.72,0.91c0-6.92,0-13.26,0-19.99c6.4,0,12.6,0,19.57,0c0,6.44,0,12.83,0,19.23
		C180.36,19.39,180.5,19.25,180.5,19.25z"/>
	<path d="M341.4,120.6c0-6.72,0-13.45-0.01-20.17c0,0-0.15,0.15-0.15,0.15c6.8,0.1,13.61,0.19,20.42,0.3
		c0.01,0.01-0.13-0.12-0.12-0.11c-0.1,6.62-0.2,13.23-0.31,19.84c0,0,0.14-0.16,0.14-0.16c-6.71,0-13.43,0-20.14,0L341.4,120.6z"/>
	<path d="M180.1,120.88c0,6.44,0,12.51,0,19.09c-6.39,0-12.6,0-19.29,0c0-6.14,0-12.34,0-19.09
		C167.03,120.88,173.22,120.88,180.1,120.88z"/>
	<path d="M160.4,180.55c0-6.45,0-12.89,0-19.67c6.91,0,13.12,0,19.82,0c0,6.79,0,13.23,0,19.67l0.15-0.13c-6.71,0-13.42,0-20.13,0
		L160.4,180.55z"/>
	<path d="M723.26,160.77c6.49,0,12.59,0,19.23,0c0,6.46,0,12.77,0,19.49c-6.39,0-12.59,0-19.23,0
		C723.26,173.88,723.26,167.67,723.26,160.77z"/>
	<path d="M140.24,180.53c6.72,0.01,13.44,0.01,20.16,0.02c0,0-0.16-0.13-0.16-0.13c0,6.57,0,13.14,0,20c-7.15,0-13.57,0-20,0
		l0.14,0.12c0-6.71-0.01-13.43-0.01-20.15C140.38,180.4,140.24,180.53,140.24,180.53z"/>
	<path d="M180.22,180.55c6.71,0.01,13.42,0.02,20.12,0.03c0,0-0.12-0.15-0.12-0.15c0,6.57,0,13.14,0,19.83c-6.84,0-13.04,0-19.86,0
		c0-6.92,0-13.38,0-19.83L180.22,180.55z"/>
	<path d="M140.39,220.4c-6.45,0-12.89,0-19.8,0c0-6.42,0-12.64,0-19.86c6.6,0,13.2,0,19.8,0c0,0-0.14-0.12-0.14-0.12
		c0,6.71,0,13.42,0,20.14L140.39,220.4z"/>
	<path d="M100.41,321.59c0-6.56,0-13.11,0-19.96c6.89,0,13.44,0,20,0c0,0-0.17-0.19-0.17-0.19c0.05,6.72,0.11,13.44,0.16,20.17
		c-6.72-0.06-13.44-0.11-20.15-0.17L100.41,321.59z"/>
	<path d="M522.42,140.59c0-6.41,0-12.81,0-19.99c6.65,0,13.32,0,19.98,0l-0.17-0.17c0,6.4,0,12.8,0,19.99c-7.2,0-13.6,0-20,0
		L522.42,140.59z"/>
	<path d="M200.07,742.94c-6.49,0-12.7,0-19.28,0c0-6.49,0-12.69,0-19.35c6.41,0,12.6,0,19.28,0
		C200.07,729.96,200.07,736.28,200.07,742.94z"/>
	<path d="M321.41,140.59c0-6.39,0-12.77,0-19.99c6.7,0,13.34,0,19.98,0c0,0-0.16-0.16-0.16-0.16c0,6.55,0,13.09,0,19.99
		c-7.42,0-13.71,0-20,0L321.41,140.59z"/>
	<path d="M220.26,120.83c0,6.51,0,12.58,0,19.14c-6.35,0-12.54,0-19.29,0c0-6.2,0-12.39,0-19.14
		C207.3,120.83,213.61,120.83,220.26,120.83z"/>
	<path d="M260.27,140.14c-6.48,0-12.68,0-19.25,0c0-6.52,0-12.73,0-19.4c6.32,0,12.52,0,19.25,0
		C260.27,126.79,260.27,133.12,260.27,140.14z"/>
	<path d="M200.35,180.57c0-6.41,0-12.81,0-19.64c6.95,0,13.11,0,19.87,0c0,6.6,0,13.11,0,19.62c0,0,0.15-0.13,0.15-0.13
		c-6.71,0-13.42,0-20.13,0L200.35,180.57z"/>
	<path d="M180.39,602.41c-6.39,0-12.79,0-20.01,0c0-6.93,0-13.47,0-20c0,0-0.14,0.15-0.14,0.15c6.52,0,13.05,0,19.99,0
		c0,7.22,0,13.61,0,20L180.39,602.41z"/>
	<path d="M502.44,80.43c6.98,0,12.92,0,19.21,0c0,6.49,0,12.7,0,19.38c-6.46,0-12.8,0-19.21,0
		C502.44,93.12,502.44,86.79,502.44,80.43z"/>
	<path d="M140.38,240.55c0-6.72,0-13.43,0.01-20.15c0,0-0.15,0.16-0.15,0.16c6.54,0,13.08,0,19.65,0c0,7.35,0,13.55,0,19.86
		c-6.83,0-13.23,0-19.64,0L140.38,240.55z"/>
	<path d="M361.18,622.31c0,6.6,0,13.19,0,20.11c-6.69,0-12.91,0-19.58,0c0-6.38,0-12.58,0-19.95c6.59,0,13.16,0,19.73,0
		C361.33,622.47,361.18,622.31,361.18,622.31z"/>
	<path d="M18.98,562.22c0.32,6.41,0.64,12.83,0.99,19.74c-6.98,0-13.2,0-19.93,0c0-6.27,0-12.62,0-19.57c6.57,0,12.84,0,19.11-0.01
		C19.13,562.38,18.98,562.22,18.98,562.22z"/>
	<path d="M19.38,441.48c-6.56,0-12.65,0-19.29,0c0-6.36,0-12.55,0-19.26c6.31,0,12.64,0,19.29,0
		C19.38,428.6,19.38,434.69,19.38,441.48z"/>
	<path d="M361.08,682.6c-6.78,0-13.01,0-19.59,0c0-6.55,0-12.75,0-19.29c6.64,0,12.99,0,19.59,0
		C361.08,669.88,361.08,675.98,361.08,682.6z"/>
	<path d="M341.48,19.41c0-6.47,0-12.66,0-19.26c6.53,0,12.74,0,19.36,0c0,6.37,0,12.57,0,19.26
		C354.45,19.41,348.15,19.41,341.48,19.41z"/>
	<path d="M18.96,542.82c-6.09-0.29-12.17-0.58-18.84-0.89c0-6.34,0-12.65,0-19.36c6.37,0,12.55,0,19.8,0
		c-0.37,7.02-0.71,13.69-1.07,20.37C18.84,542.95,18.96,542.82,18.96,542.82z"/>
	<path d="M80.88,259.9c3.3,0.39,6.6,0.9,9.91,1.12c2.78,0.19,5.57,0.04,8.81,0.04c0,6.61,0,12.81,0,19.48c-6.17,0-12.38,0-19.93,0
		c0.41-6.78,0.84-13.72,1.27-20.67C80.97,259.85,80.88,259.9,80.88,259.9z"/>
	<path d="M301.4,562.58c-27.06,0-54.12,0-81.17-0.01c0-6.45,0-12.9,0-20.04c7.09,0,13.31,0,20.28,0c0-13.71,0-26.73,0-40.07
		c6.99,0,13.21,0,20.04,0c0,13.13,0,26.02,0,39.37c6.93,0,13.27,0,20.31,0c0-26.5,0-52.82,0-78.99c6.91,3.01,13.28,5.79,20.29,8.84
		c0,2.61,0,6.06,0,10.1c6.58,0,12.81,0,19.51,0c0,6.94,0,13.27,0,20.36c-6.52,0-12.73,0-19.09,0c-0.27,1.64-0.56,2.59-0.56,3.54
		c-0.03,17.81-0.03,35.62,0,53.44C301,560.28,301.26,561.43,301.4,562.58z"/>
	<path d="M482.4,361.44c0,13.18,0,26.36,0,39.98c6.83,0,13.42,0,20,0c-0.05,6.71-0.1,13.41-0.15,20.12l0.15-0.12
		c-6.6,0-13.19,0-20.19,0c0,7.17,0,13.51,0,20.13c7,0,13.59,0,20.17,0l-0.12-0.14c0,6.59,0,13.17,0,20.47c6.39,0,12.75,0,19.45,0
		c0,6.9,0,13.09,0,19.69c-6.37,0.33-12.9,0.67-19.43,1c0-6.62,0-13.23,0-20.5c-13.86,0-26.89,0-41.6,0
		c10.16-10.03,9.39-21.51,9.31-32.94c-0.14-20.31-0.03-40.62-0.03-60.93c0-1.95,0-3.91,0-6.76
		C474.53,361.44,478.47,361.44,482.4,361.44z"/>
	<path d="M180.24,461.55c0-12.92,0-25.84,0-40.13c7.06,0,13.6,0,20.13,0c0,6.6,0,13.21,0,20.34c7.08,0,13.18,0,19.94,0
		c0,6.74,0,12.95,0,19.98c13.67,0,26.71,0,40.08,0c0,7.04,0,13.27,0,19.86c-19.86,0-39.57,0-59.84,0c0-6.38,0-12.64,0-20.05
		C193.42,461.55,186.83,461.55,180.24,461.55z"/>
	<path d="M140.24,522.57c0-6.61,0-13.21,0-20.44c-6.95,0-13.19,0-19.76,0c0-6.89,0-13.13,0-19.68c13.39,0,26.64,0,39.89,0
		c0,6.3,0,12.6,0,19.52c6.72,0,12.98,0,19.63,0c0,6.84,0,13.08,0,20.61C166.75,522.57,153.49,522.57,140.24,522.57z"/>
	<path d="M381.17,502.03c-6.61,0-12.84,0-19.75,0c0,6.89,0,13.11,0,19.75c-6.9,0-13.11,0-19.8,0c0-13.1,0-26.09,0-39.76
		c6.36,0,12.6,0,19.44,0c0-4.05,0-7.44,0-11.36c6.95,0,13.31,0,20.11,0C381.17,480.98,381.17,491.16,381.17,502.03z"/>
	<path d="M160.25,482.58c0-6.56,0-13.11,0-20.18c7.12-0.35,13.62-0.67,20.11-0.99c0,6.63,0,13.26,0,20.49c6.85,0,13.1,0,19.94,0
		c0,6.82,0,13.07,0,20.01c6.81,0,13.04,0,19.78,0c0,6.87,0,13.08,0,19.81c-6.09,0-12.31,0-19.23,0c0-6.1,0-12.33,0-19.4
		c-7.01,0-13.38,0-20.32,0c0-7.08,0-13.32,0-19.74C173.38,482.58,166.82,482.58,160.25,482.58z"/>
	<path d="M200.37,301.44c0,6.38,0,12.76,0,20c7.24,0,13.62,0,20,0c0,6.43,0,12.86,0,19.6c-13.47,0-26.35,0-39.6,0
		c0-13.22,0-26.11,0-39.59C187.53,301.44,193.95,301.44,200.37,301.44z"/>
	<path d="M200.37,401.57c-6.29,0-12.58,0-19.68,0c0-6.55,0-12.75,0-20.15c-7.35,0-13.91,0-20.47,0c0,0,0.15,0.15,0.15,0.15
		c0-6.71,0-13.42,0-20.13l-0.14,0.14c13.11,0,26.21,0,40.14,0C200.37,375.15,200.37,388.36,200.37,401.57z"/>
	<path d="M240.02,401.73c10.6,0,21.21,0,32.25,0c0,6.91,0,13.13,0,19.73c-3.65,0.16-7.09,0.32-11.29,0.51c0,6.47,0,12.84,0,19.52
		c-6.98,0-13.21,0-20.29,0c0-2.64,0.03-5.07-0.01-7.49c-0.17-10.8-0.36-21.6-0.54-32.4C240.16,401.59,240.02,401.73,240.02,401.73z"
		/>
	<path d="M140.38,381.42c-6.42,0-12.84,0-19.78,0c0-6.6,0-12.77,0-19.69c6.19,0,12.38,0,19.64,0c0-7.24,0-13.77,0-20.31
		c6.41,0,12.82,0,19.99,0c0,7.05,0,13.6,0,20.14l0.14-0.14c-6.55,0-13.1,0-20.13,0c0,7.27,0,13.7,0,20.13L140.38,381.42z"/>
	<path d="M220.37,562.43c0,13.16,0,26.33,0,40.13c-7.01,0-13.58,0-20.14,0c0-13.11,0-26.21,0-40.13
		C207.54,562.43,213.96,562.43,220.37,562.43z"/>
	<path d="M261.55,361.66c-0.42,6.38-0.84,12.77-1.3,19.78c-6.34,0-12.56,0-19.07,0c-0.41,7.18-0.78,13.73-1.15,20.28
		c0,0,0.13-0.14,0.13-0.13c-6.72-0.13-13.43-0.26-20.14-0.39c0.01,0.01,0.15,0.15,0.15,0.15c0-6.39,0-12.78,0-19.72
		c7.46,0,13.68,0,20.42,0c0-6.76,0-12.98,0-19.84c7.37,0,14.24,0,21.11,0L261.55,361.66z"/>
	<path d="M200.23,421.55c0-6.71-0.01-13.42-0.01-20.14c6.65-0.01,13.31-0.03,19.95-0.05c-0.01-0.01-0.15-0.15-0.16-0.16
		c-0.01,6.57-0.01,13.15-0.01,20.34C213.39,421.55,206.81,421.55,200.23,421.55z"/>
	<path d="M140.37,341.57c-6.45,0-12.89,0-20.13,0c0-7.3,0-13.72,0-20.13c6.71,0,13.42,0,20.14,0
		C140.38,328.15,140.38,334.86,140.37,341.57z"/>
	<path d="M321.39,562.43c0,6.71,0.01,13.43,0.01,20.14c-6.58,0-13.15,0-20.15,0c0-7.33,0-13.74,0-20.14
		C307.96,562.43,314.67,562.43,321.39,562.43z"/>
	<path d="M341.38,562.57c-6.71,0-13.42,0-20.13,0.01c0-6.44,0-12.89,0-19.79c6.58,0,12.77,0,20.13,0
		C341.38,549.43,341.38,556,341.38,562.57z"/>
	<path d="M301.6,180.22c6.23,0,12.46,0,19.07,0c0,7.29,0,13.48,0,20.07c-6.39,0-12.57,0-19.88,0c0.31-6.86,0.62-13.53,0.93-20.2
		C301.73,180.08,301.6,180.22,301.6,180.22z"/>
	<path d="M421.39,470.59c0,3.94,0,7.36,0,11.12c-6.58,0-12.81,0-19.62,0c0-3.65,0-7.15,0-11.12
		C408.25,470.59,414.61,470.59,421.39,470.59z"/>
	<path d="M261.7,361.79c-0.43-6.54-0.87-13.07-1.33-20.05c4.38,0,7.78,0,11.78,0c0,6.24,0,12.42,0,19.34
		c-3.49,0.18-7.05,0.37-10.61,0.56C261.55,361.66,261.7,361.79,261.7,361.79z"/>
	<path d="M502.25,421.53c13.38-0.04,26.75-0.08,40.13-0.12c0,6.57,0,13.15,0,19.98c-14.08,0-27.1,0-40.11,0c0,0,0.12,0.14,0.12,0.14
		c0-6.71,0.01-13.42,0.01-20.13L502.25,421.53z"/>
	<path d="M561.98,502.91c-6.38-0.42-12.75-0.84-19.52-1.28c0-6.36,0-12.59,0-19.25c6.52,0,12.88,0,19.45,0
		c0,7.08,0,13.85-0.01,20.64C561.88,503.04,561.98,502.91,561.98,502.91z"/>
	<path d="M622.14,602.95c0,6.77,0,12.85,0,19.35c-6.58,0-12.79,0-19.39,0c0-6.52,0-12.73,0-19.35
		C609.21,602.95,615.42,602.95,622.14,602.95z"/>
	<path d="M99.7,40.34c0,20.02,0,39.59,0,59.52c-20.05,0-39.74,0-59.69,0c0-19.96,0-39.55,0-59.52
		C59.82,40.34,79.52,40.34,99.7,40.34z"/>
	<path d="M642.84,99.91c0-20.19,0-39.76,0-59.63c19.76,0,39.35,0,59.47,0c0,19.68,0,39.48,0,59.63
		C682.58,99.91,663.04,99.91,642.84,99.91z"/>
	<path d="M99.58,702.75c-20.02,0-39.59,0-59.48,0c0-19.96,0-39.67,0-59.7c19.88,0,39.44,0,59.48,0
		C99.58,662.96,99.58,682.65,99.58,702.75z"/>
	<path d="M140.24,401.57c0.05-6.71,0.1-13.43,0.15-20.14l-0.14,0.14c6.71,0,13.42,0,20.13,0.01c0,0-0.15-0.15-0.15-0.15
		c0,6.43,0,12.85,0,20.15C153.33,401.57,146.78,401.57,140.24,401.57z"/>
</g>
<g>
	<g>
		<path class="st0" d="M451.02,396.01c-0.4-0.36-0.53-0.55-0.94-0.9c-0.39-0.34-1.34-0.56-1.67-0.97c-0.35-0.45-0.79-0.9-1.01-1.42
			c-0.64-1.56-1.03-2.87-1.56-4.48c-0.53-1.59-0.68-3.64-1.05-5.27c-0.24-0.96-0.51-1.92-0.43-2.92c0.02-0.21-0.05-0.46-0.19-0.62
			c-0.2-0.22-0.5-0.37-0.79-0.58c-0.29,0.21-0.5,0.37-0.66,0.49c-0.11,0.19-0.02,0.19-0.02,0.24c0.01,2.01-0.21,3.96,0.07,5.96
			c0.19,1.34-0.28,2.5-0.46,3.81c-0.2,1.49-0.7,3.01-0.78,4.51c-0.04,0.67-0.4,1.12-0.81,1.45c-4.99,0.63-10.34-0.6-14.89-2.67
			c-0.75-0.34-1.5-0.72-2.22-1.12c-1.39-0.77-2.73-1.66-3.8-2.83c-1.31-1.46-2.15-3.27-2.73-5.12c-0.29-0.94-0.51-1.91-0.7-2.88
			c-0.2-1.07-0.58-2.22-0.24-3.3c0.24-0.76,0.42-1.61,0.73-2.34c0.36-0.83,1-1.5,1.73-2.02c0.58-0.41,0.98-0.94,1.3-1.51
			c0.22-0.38,0.22-0.71-0.07-1.07c-0.68-0.87-1.33-1.73-2.37-2.35c-1.08-0.64-2.09-1.35-3.12-2.03c-1.01,0.23-2.01-0.23-2.87,0.3
			c-0.25,0.15-0.28,1.28-0.35,1.56c-0.13,0.51-0.23,0.85-0.76,1.04c-0.84,0.31-1.68,0.62-2.52,0.94c-0.25,0.09-0.5,0.19-0.75,0.28
			c-0.91,0.34-1.83,0.68-2.74,1.02c-1.68,0.62-1.06-2.71-1.02-3.54c0.1-2.35,0.18-4.69,0.23-7.04c0.03-1.49,0.23-2.9,0.44-4.36
			c0.02-0.16,0.03-0.35-0.05-0.49c-0.64-1.07-1.17-2.2-2.19-3.07c-0.78-0.66-1.4-1.41-1.88-2.33c0.98-0.39,1.97-0.75,2.93-1.17
			c0.97-0.42,1.84-0.98,2.76-1.48c0.11-0.06,0.24-0.11,0.34-0.05c0.12,0.08,0.11,0.26,0.08,0.4c-0.2,0.92-0.3,1.81-0.36,2.75
			c-0.06,1.03-0.15,2.15,0.49,3.03c0.17,0.23,0.24,0.51,0.34,0.76c0.52,1.29,0.96,2.61,1.95,3.72c0.17,0.2,0.34,0.41,0.44,0.63
			c0.23,0.52,0.64,0.94,1.04,1.37c0.91,1,1.96,1.83,3.19,2.57c2.71,1.63,5.68,2.75,8.78,3.65c1.1,0.32,2.25,0.43,3.4,0.55
			c1.87,0.19,3.72,0.18,5.57-0.05c1.05-0.13,2.09-0.35,2.96-0.9c0.72-0.45,1.4-0.95,2.09-1.44c0.33-0.23,0.61-0.53,0.56-0.91
			c-0.09-0.69-0.26-1.33-0.81-1.8c-0.34-0.3-0.75-0.51-1.13-0.75c-1.34-0.87-2.36-2.16-3.12-3.57c-0.69-1.27-1.16-2.64-1.67-3.99
			c-0.1-0.26-0.2-0.52-0.38-0.73c-0.22-0.25-0.54-0.4-0.75-0.67c-0.18-0.23-0.25-0.53-0.38-0.8c-0.41-0.82-1.69-0.57-1.44,0.41
			c0.23,0.93,0.51,1.86,0.74,2.8c0.47,1.86,0.28,4.01,0.12,5.9c-0.01,0.1-0.02,0.2-0.08,0.29c-0.43,0.61-1.75,0.42-2.38,0.4
			c-2.71-0.1-6.12-0.16-8.44-1.77c-0.07-0.05-0.16-0.1-0.25-0.12c-1.84-0.3-2.9-2.8-3.61-4.28c-0.11-0.23-0.22-0.46-0.27-0.71
			c-0.05-0.26-0.03-0.53-0.01-0.79c0.13-1.7,0.42-3.39,0.87-5.03c0.1-0.36,0.21-0.73,0.45-1.02c0.58-0.69,1.69-0.69,2.46-1.1
			c0.76-0.42,1.39-1.03,1.94-1.69c0.51-0.61-0.81-1.95-1.14-2.35c-0.68-0.82-1.51-1.49-2.49-1.93c-0.62-0.28-1.29-0.47-1.86-0.84
			c-1.14-0.74-2.35-1.67-3.47-0.3c-0.33,0.4-0.64,0.83-0.86,1.28c-0.48,1.01-0.91,2.04-1.35,3.07c-0.14,0.33-0.26,0.67-0.36,0.94
			c-0.85,0.44-1.62,0.84-2.39,1.23c-0.11,0.06-0.23,0.1-0.35,0.14c-0.55,0.21-1.15,0.37-1.66,0.64c-1.75,0.92-3.57,1.71-5.44,2.44
			c-2.19,0.85-4.46,1.54-6.7,2.27c-0.62,0.2-1.29,0.33-1.95,0.42c-0.72,0.1-1.46,0.15-2.2,0.19c-0.46,0.03-0.83,0.1-0.88,0.54
			c0.12,0.48,0.54,0.68,0.99,0.86c1.26,0.48,2.56,0.32,3.85,0.13c2.28-0.35,4.48-0.93,6.6-1.74c0.36-0.14,0.72-0.23,1.15-0.09
			c0.06,0.06,0.18,0.13,0.23,0.22c0.79,1.44,0.98,2.71,0.89,4.32c-0.11,1.86-0.02,3.75-0.09,5.62c-0.15,3.74-0.47,7.48-0.96,11.19
			c-0.11,0.85-2.24,1.17-2.96,1.45c-0.63,0.24-2.09,1.08-2.04-0.4c0.03-0.96,0.11-1.91,0.19-2.87c0.14-1.87,0.19-3.66,0.32-5.53
			c0.13-1.81,0.09-3.63,0.42-5.39c0.13-0.7,1.39-2.1,0.86-2.61c-0.65-0.64-2.86-0.54-3.73-0.67c-0.26-0.04-2.45-0.69-2.08,0.46
			c0.21,1.43,0.54,2.41,0.6,3.12c0.09,1.13,0.27,3,0.24,3.95c-0.03,0.93-0.1,1.8,0.19,2.71c0.05,0.17,0.12,0.34,0.13,0.51
			c0.03,0.31-0.07,0.62-0.17,0.92c-0.36,1.14-0.58,2.33-0.66,3.53c-0.07,1.15-0.28,2.26-0.45,3.4c-0.04,0.25-0.17,0.56-0.39,0.7
			c-1.93,1.23-4.11,1.78-6.28,2.52c-2.36,0.81-4.73,1.62-7.09,2.44c-1.8,0.62-3.6,1.23-5.47,1.6c-0.96,0.19-1.93,0.31-2.91,0.32
			c-0.72,0.01-1.62-0.34-2,0.46c-0.11,0.24,0.15,0.87,0.3,1.07c0.27,0.37,0.79,0.67,1.19,0.88c0.87,0.47,1.87,0.71,2.86,0.64
			c0.81-0.06,1.6-0.3,2.39-0.53c1.62-0.48,3.26-0.89,4.88-1.37c2.19-0.65,4.33-1.44,6.46-2.27c0.61-0.24,4.84-2.4,5.05-1.23
			c0.09,0.47-0.3,0.94-0.48,1.34c-0.34,0.75-0.36,1.55-0.58,2.33c-0.29,1.05-0.9,2-1.21,3.05c-0.33,1.1-0.61,2.23-1.13,3.26
			c-0.94,1.89-1.76,3.83-3.02,5.54c-0.61,0.84-1.31,1.58-2.1,2.26c-0.52,0.46-1.8,0.97-1.8,1.77c0.87,0.36,1.88-0.09,2.6-0.7
			c0.72-0.61,1.3-1.39,2.12-1.87c0.33-0.19,0.68-0.32,0.99-0.53c0.38-0.25,0.69-0.6,0.98-0.96c0.78-0.98,1.42-2.07,2.05-3.16
			c2.36-4.05,4.76-8.18,5.82-12.75c0.12-0.52,0.23-1.06,0.44-1.55c0.3-0.68,0.5-0.71,1.19-0.85c1.26-0.26,2.43-0.8,3.62-1.29
			c0.24,0.18,0.43,0.32,0.68,0.49c-0.11,1.67-0.39,3.31-0.39,5c-0.01,1.8,0.09,3.61-0.08,5.4c-0.31,3.44-0.08,6.99-0.08,10.44
			c0,1.56,0.01,3.15,0.52,4.62c0.41,1.18,1.28,3.16,2.53,3.65c0.55,0.21,1.18,0.13,1.71-0.13c1.13-0.57,1.86-1.94,2.22-3.1
			c0.59-1.92,0.36-4.12,0.3-6.09c-0.07-2.16-0.24-4.31-0.39-6.47c-0.17-2.43-0.34-4.86-0.5-7.29c0-1.67-0.23-3.38-0.35-5.04
			c-0.04-0.62-0.39-1.93-0.15-2.49c0.38-0.87,2.63-0.96,3.44-1.32c0.62-0.28,3.42-2.43,3.82-1.46c0.13,0.33,0.13,0.73,0.15,1.08
			c0.15,2.66,0.74,5.21,1.23,7.82c0.49,2.33,1.06,4.68,2.08,6.84c0.43,0.92,0.95,1.8,1.56,2.62c0.95,1.28,2.13,2.37,3.36,3.38
			c3.79,3.09,8.2,5.37,12.88,6.78c2.13,0.64,4.32,1.1,6.52,1.38c1.09,0.14,2.19,0.23,3.29,0.27c1.07,0.04,2.17-0.2,3.25-0.32
			c1-0.11,1.86-0.56,2.72-0.96c0.37-0.17,0.87-0.67,1.2-0.87c0.44-0.28,0.6-0.69,1.04-1.02c0.68-0.5,1.04-1.14,1.49-1.82
			C451.81,397.33,451.73,396.65,451.02,396.01z"/>
		<path class="st0" d="M315.52,401.28c0.45-0.21,0.87-0.46,1.24-0.75c0.62-0.48,1.13-1.1,1.69-1.66c0.6-0.61,1.32-1.31,1.2-2.16
			c-0.03-0.24-0.13-0.46-0.22-0.68c-0.37-0.85-0.66-2.03-1.21-2.77c-0.46-0.63-1.08-0.25-1.39,0.32c-0.82,1.53-1.85,3.33-3.62,3.86
			c-0.19,0.06-0.39,0.1-0.58,0.06c-0.21-0.05-0.38-0.19-0.54-0.33c-0.33-0.28-0.65-0.55-0.98-0.83c-0.11-0.09-0.22-0.19-0.28-0.32
			c-0.05-0.13-0.04-0.28-0.03-0.42c0.08-1.1,0.04-2.2-0.11-3.29c-0.16-1.14-0.18-2.03,0.33-3.09c0.03-0.07,0.07-0.15,0.14-0.2
			c0.08-0.06,0.18-0.08,0.28-0.1c1.17,0,2.49-0.43,3.65-0.63c0.97-0.17,2.37-0.18,3.08-0.98c0.1-1.22-0.2-2.31-0.93-3.3
			c-0.47-0.05-0.88-0.18-1.27,0.06c-0.42,0.26-0.78,0.7-1.17,1.01c-0.8,0.63-1.69,1.17-2.69,1.4c-0.28,0.06-0.57,0.1-0.84,0
			c-0.84-0.29-0.39-2.07-0.28-2.73c0.2-1.16,0.65-2.26,1.37-3.19c-0.19-1.57-1.57-2.08-3.16-2.52c0.28-0.38,0.51-0.68,0.73-0.98
			c0.45,0,0.81,0.01,1.16,0c1.06-0.04,2.12-0.09,3.17-0.12c1.13-0.03,1.95-0.49,2.56-1.34c-0.02-3.93,0.14-7.89-0.42-11.76
			c0.79-0.88,1.49-1.66,2.18-2.44c-0.39-1.64-1.66-2.79-2.79-4c-0.19,0-0.35,0-0.53,0c-0.23,0.25-0.47,0.51-0.71,0.76
			c-0.87,0.91-1.73,1.84-2.86,2.55c-0.5,0.32-1.03,0.53-1.65,0.57c-0.57-0.96-0.68-1.24-0.49-1.97c0.32-1.23,0.66-2.45,1.05-3.66
			c0.21-0.65,0.39-1.27-0.09-1.84c0.42-0.53,0.95-0.84,1.6-0.97c1.53-0.31,3.07-0.32,4.63-0.28c0.57,0.01,1.23,0,1.58-0.45
			c0.37-0.47,0.21-1.15,0-1.71c-0.36-0.94-0.82-1.84-1.35-2.69c-0.14-0.23-0.3-0.47-0.54-0.6c-0.57-0.32-1.04,0.35-1.42,0.68
			c-0.58,0.5-1.15,1.01-1.76,1.48c-1.14,0.9-3.08,1.72-4.57,1.33c-0.31-0.08-0.61-0.34-0.62-0.67c-0.01-0.29,0.2-0.53,0.34-0.78
			c0.44-0.8,0.23-1.78,0.26-2.69c0.01-0.16,0.02-0.33,0.09-0.48c0.09-0.2,0.26-0.35,0.42-0.5c0.43-0.38,0.86-0.75,1.29-1.13
			c0.26-0.23,0.54-0.48,0.6-0.82c0.11-0.6-0.47-1.07-0.98-1.4c-0.97-0.63-1.93-1.25-2.9-1.88c-0.72-0.47-1.7-1.37-2.64-1.1
			c-1.29,1.19-2.91,2.08-4.58,2.87c-0.3,0.14,0.69,1.6,0.81,1.75c0.37,0.45,1.15,0.9,1.06,1.54c-0.21,1.45-0.11,2.83-0.06,4.27
			c0.04,1.1-0.67,1.94-1.74,2.22c-0.84-0.54-1.76,0.02-2.63-0.03c-2.22-1.05-4.27-2.31-6.75-3c-1.2,0.84-1.94,1.89-2.26,3.2
			c1.31,0.99,1.84,2.19,2.19,3.45c0.53,1.9,0.62,3.84,0.62,5.79c-0.01,6.03,0.02,12.07-0.01,18.1c-0.01,1.53-0.02,3.08-0.29,4.59
			c-0.37,2.1-0.91,4.19-1.5,6.25c-1.36,4.75-3.78,9.12-7,13.16c-1.14,1.43-2.38,2.79-3.61,4.23c0.01,0.21,0.03,0.48,0.04,0.73
			c0.42,0.12,0.68-0.04,0.92-0.23c0.75-0.56,1.51-1.11,2.22-1.71c1.69-1.44,3.19-3.01,4.48-4.72c1.34-1.77,2.61-3.58,3.85-5.41
			c0.96-1.42,1.77-2.92,2.34-4.49c1.46-4.04,2.35-8.16,2.76-12.37c0.03-0.35,0.14-0.69,0.21-1.06c0.43,0,0.81,0,1.26,0
			c0.26,0.15,0.57,0.34,0.92,0.56c-0.07,0.7-0.17,1.38-0.2,2.06c-0.05,0.92,0.11,1.84,0.07,2.77c-0.07,1.57-0.58,3.17-0.39,4.74
			c0.18,1.47-0.09,2.96-0.24,4.41c-0.16,1.59-0.32,3.18-0.64,4.74c-0.15,0.74-0.41,0.95-1.29,1.1c-0.49,0.08-0.96,0.2-1.21,0.6
			c-0.65,1.04-1.01,2.13-0.58,3.3c0.52,1.44,0.85,1.38,2.34,1.27c3.17-2.34,6.1-5.04,9.17-7.55c0-0.32,0-0.59,0-0.87
			c-1.02,0.09-2,0.18-2.87,0.26c-0.55-0.38-0.69-0.82-0.74-1.24c-0.14-1.25-0.11-2.51-0.03-3.77c1.37-0.97,2.98-1.46,4.54-2.01
			c0.22-0.08,0.48-0.07,0.79-0.11c0.03,0.28,0.07,0.5,0.07,0.71c0.01,0.85-0.02,1.7,0.01,2.55c0.07,2.22,0.13,4.43,0.26,6.65
			c0.03,0.56,0.22,1.13,0.45,1.67c0.4,0.93,1.19,1.54,2.33,1.81C311.39,402.38,313.73,402.11,315.52,401.28z M310.97,363.44
			c0.34,0.21,0.65,0.4,1.06,0.64c0.05,0.31,0.13,0.68,0.15,1.06c0.04,0.88,0.04,1.75,0.06,2.63c0.06,1.89,0.14,3.78,0.16,5.66
			c0.01,0.45-0.11,0.92-0.27,1.36c-0.16,0.44-0.56,0.66-1.17,0.48c-0.61-0.66-0.7-1.5-0.88-2.29c-0.24-1.04-0.44-2.1-0.55-3.16
			c-0.06-0.56,0.16-1.13,0.2-1.7c0.05-0.65,0.08-1.31,0.04-1.96c-0.03-0.54-0.19-1.07-0.3-1.68
			C309.95,364.15,310.44,363.81,310.97,363.44z M302.58,359.03c0.14-0.86,0.24-1.72,0.64-2.55c0.15-0.31,0.03-0.75-0.06-1.12
			c-0.08-0.34-0.28-0.66-0.44-1.04c0.19-0.23,0.38-0.47,0.55-0.67c0.81-0.29,1.27,0.17,1.79,0.47c0.47,0.27,0.59,0.66,0.58,1.14
			c-0.03,1.39,0,2.79-0.02,4.18c0,0.32-0.06,0.65-0.13,0.97c-0.27,1.29-1.73,1.78-3.1,1.01
			C302.44,360.65,302.44,359.84,302.58,359.03z M302.76,365.91c-0.1-0.45-0.02-0.92-0.02-1.38c0.69-0.54,0.99-0.65,1.99-0.71
			c0.61,0.44,0.65,1.1,0.69,1.71c0.1,1.44,0.15,2.89,0.18,4.34c0.03,1.31,0.01,2.63,0.01,3.94c0,0.76-0.04,0.82-0.72,1.5
			c-0.46,0-0.97,0-1.49,0c-0.52-0.31-0.68-0.81-0.68-1.29c0.01-1.42,0.1-2.84,0.12-4.26C302.86,368.47,303.05,367.19,302.76,365.91z
			 M298.06,375.17c-0.78,0.29-1.61,0.26-2.55-0.03c-0.06-1.79-0.12-3.51-0.19-5.23c-0.05-1.23-0.08-2.46-0.15-3.68
			c-0.07-1.17,0.52-1.34,1.47-1.62c0.12-0.03,0.25-0.03,0.38-0.06c1.21-0.31,1.69,0.05,1.98,0.98c0.24,0.76,0.4,1.55,0.45,2.33
			c0.11,1.75,0.16,3.49,0.18,5.24C299.65,374.05,299.1,374.79,298.06,375.17z M299.59,361.38c-0.34,0.92-2.69,1.01-3.42,1.07
			c-0.61-0.26-1.01-0.72-0.97-1.41c0.03-0.44,0.18-0.86,0.25-1.3c0.29-1.92-1.37-4.98,1.65-5.33c0.51-0.06,1.09-0.12,1.42,0.35
			c0.15,0.22,0.23,0.47,0.3,0.73c0.48,1.75,0.64,3.56,0.8,5.36c0.01,0.17,0.03,0.34-0.02,0.5
			C299.6,361.36,299.59,361.37,299.59,361.38z M307.08,383.66c-0.39,0.81-0.22,1.67-0.33,2.51c0,0.02-0.04,0.04-0.11,0.11
			c-0.78-0.07-1.6-0.13-2.46-0.21c-0.55,0.45-1.13,0.92-1.73,1.41c-0.3,0-0.61,0-0.88,0c-0.43-0.27-0.46-0.62-0.45-0.99
			c0-0.79,0.04-1.59-0.01-2.38c-0.07-0.93,0.3-1.71,0.92-2.44c0.21-0.24,0.42-0.48,0.62-0.71c0.18-0.65-0.14-1.09-0.79-1.36
			c-0.63-0.26-1.29-0.48-1.99-0.74c0-0.32,0-0.66,0-1.08c0.99-0.26,2.04-0.28,3.08-0.4c1.04-0.12,2.08-0.24,3.12-0.36
			c0.46,0.6,0.7,1.18,0.72,1.82c0.02,0.57-0.02,1.15,0.01,1.72c0.05,0.9,0.14,1.79,0.22,2.69
			C307.04,383.4,307.13,383.55,307.08,383.66z"/>
		<path class="st0" d="M359.23,387.11c-0.39-0.31-0.77-0.66-1.34-0.78c-0.83,0.42-1.39,1.07-2.07,1.6
			c-0.37,0.29-0.78,0.57-1.22,0.78c-1.1,0.53-2.33,0.75-3.58,0.92c-0.46-0.24-0.77-0.57-0.79-1.05c-0.05-0.98-0.09-1.96-0.16-2.95
			c-0.11-1.66-0.25-3.33-0.37-4.99c-0.01-0.13,0.05-0.26,0.11-0.54c2.35-0.35,4.68,0.04,7.03-0.11c0.5-0.03,1.01-0.1,1.51,0
			c0.16,0.03,1.03,0.47,1.13,0.4c0.3-0.2,0.56-0.38,0.77-0.52c-0.08-0.6-0.15-1.08-0.22-1.56c-1.2-1.33-2.5-2.57-4.22-3.51
			c-0.36,0.2-0.71,0.38-1.06,0.58c-0.96,0.55-1.9,1.12-2.87,1.65c-0.5,0.28-1.68,0.55-1.86-0.26c-0.04-0.17-0.02-0.34,0-0.51
			c0.06-0.57,0.13-1.15,0.07-1.72c-0.04-0.44-0.28-0.99,0-1.4c0.67-0.96,1.03-1.8-0.15-2.49c-1.48-0.85-3.09-1.46-4.77-1.78
			c-0.91-0.17-0.63,1.27-0.58,1.82c0.08,0.87,0.13,1.75,0.33,2.61c0.25,1.05,0.05,2.07-0.11,3.1c-0.07,0.44-0.17,0.93-0.68,1.23
			c-1.39,0.04-2.8-0.21-4.14,0.19c-0.56-0.64-1.03-1.23-1.55-1.78c-0.51-0.54-0.93-1.19-1.85-1.39c-0.78,0.69-1.78,1.12-2.48,1.9
			c-0.63,0.7-1.59,1.09-2.65,1.22c-0.82,0.1-1.28-0.09-1.65-0.71c-0.1-0.17-0.17-0.35-0.27-0.58c0.3-0.63,0.61-1.29,0.94-1.96
			c-0.65-1.67-2.2-2.67-3.86-3.77c-0.12,0.35-0.22,0.57-0.27,0.8c-0.25,1.15-0.5,2.31-0.72,3.47c-0.41,2.19-1.08,4.32-1.83,6.44
			c-0.54,1.51-0.89,3.08-1.71,4.52c-0.37,0.64-0.68,1.3-1.01,1.95c-0.38,0.77-0.75,1.55-1.12,2.31c0.18,0.18,0.29,0.29,0.48,0.48
			c0.3-0.28,0.59-0.49,0.8-0.75c0.77-0.94,1.52-1.9,2.28-2.85c0.21-0.27,0.42-0.53,0.68-0.87c0.36,0.17,0.65,0.3,0.84,0.39
			c0.26,1.02,0.43,1.95,0.73,2.84c0.31,0.91,0.48,1.81,0.19,2.75c0.27,0.32,0.52,0.63,0.79,0.95c-0.12,0.67-0.45,1.26-0.84,1.83
			c-1.86,2.68-4.24,5.02-6.65,7.34c-0.21,0.2-0.49,0.35-0.75,0.51c-1.66,0.99-3.33,1.97-4.98,2.96c-0.4,0.24-0.75,0.54-1.13,0.82
			c0.79,0.04,1.43-0.2,2.06-0.46c2.45-1.01,4.59-2.38,6.7-3.83c1.9-1.3,3.57-2.76,5.02-4.4c1.88-2.12,3.62-4.32,5.17-6.64
			c1.29-1.93,2.54-3.87,3.27-6.01c0.21-0.6,0.45-1.2,0.75-1.77c0.66-1.21,1.36-2.41,2.07-3.6c0.23-0.38,0.47-0.79,1.08-1
			c0.24,0.06,0.54,0.13,0.82,0.2c0.1,0.02,0.36,1.05,0.47,1.2c0.66,0.91,1.44,0.1,2.23-0.02c0.54-0.08,1.19,0.14,1.73,0.24
			c0.14,0.02,0.28,0.05,0.4,0.11c0.72,0.37,0.63,1.69,0.68,2.36c0.05,0.75,0.02,1.5,0.13,2.26c0.17,1.16,0.08,2.35,0.05,3.53
			c-0.01,0.57-0.36,1.02-1.02,1.16c-0.74,0.15-1.71,0.39-2.31-0.25c-0.18-0.19-0.28-0.44-0.38-0.69c-0.45-1.21-0.57-2.53,0.41-3.52
			c-0.08-0.61-0.37-1.06-0.86-1.4c-0.63-0.43-1.32-0.76-2.04-0.99c-0.62-0.21-1.57-0.68-1.93,0.12c-0.28,0.63-0.12,1.32-0.05,1.97
			c0.08,0.77,0.13,1.55,0.13,2.33c0,0.85-0.04,1.7-0.14,2.54c-0.09,0.79-0.43,1.7-0.34,2.48c0.06,0.51,0.26,0.91,0.79,1.05
			c0.49,0.13,1,0.01,1.49-0.08c1.62-0.31,3.25-0.59,4.79-0.87c0.95,0.36,1.32,0.9,1.28,1.67c-0.04,0.9-0.02,1.78-0.04,2.68
			c-0.01,0.67-0.09,1.35-0.09,2.02c0,1.04,0.18,2.07,0.15,3.1c-0.02,0.64-0.12,1.28-0.09,1.93c0.02,0.42,0.07,0.8-0.01,1.22
			c-0.08,0.42-0.15,0.86-0.12,1.29c0.06,0.9,0.74,1.26,1.73,0.93c0.62-0.2,1.1-0.57,1.48-1.02c0.78-0.92,1.31-1.94,1.76-3
			c0.38-0.9,0.63-1.8,0.59-2.79c-0.08-2.27,0.02-4.55,0.03-6.83c0.01-0.77,0.32-1.32,1.05-1.58c0.54-0.19,1.11-0.31,1.68-0.33
			c0.69-0.02,1.38,0.2,2.08,0.22c0.79,0.02,1.56,0.04,2.35,0.15c0.83,0.11,1.65,0.27,2.49,0.25c0.73-0.02,1.36,0.31,2.1,0.32
			c0.13-0.19,0.32-0.41,0.41-0.66c0.41-1.12,0.27-2.18-0.7-3.06C360.94,388.44,360.08,387.77,359.23,387.11z M332.81,380.73
			c-0.42,1.17-0.84,2.34-1.28,3.5c-0.42,1.09-0.86,2.17-1.31,3.24c-0.11,0.26-0.34,0.49-0.54,0.77c-0.99-0.26-1.52-0.93-2.21-1.38
			c-0.68-0.45-1.27-1-1.98-1.57c0.2-0.97,0.45-1.88,1.14-2.61c0.29-0.3,0.51-0.61,0.72-0.95c0.22-0.36,0.42-0.74,0.69-1.08
			c0.5-0.62,0.7-0.66,1.65-0.51c1.02-0.37,2.07-0.7,3.22-0.07C332.87,380.32,332.88,380.54,332.81,380.73z"/>
		<path class="st0" d="M364.85,365.75c-0.48,0-0.96,0.08-1.44-0.01c-1.34-0.24-2.68-0.5-4.02-0.77c-0.58-0.11-1.14-0.26-1.69-0.44
			c-0.48-0.16-1.29-0.71-1.77-0.71c-0.81-0.38-1.67-0.69-2.53-0.98c-1.76-0.59-3.57-1.08-4.99-2.22c-0.68-0.54-1.42-1.03-2.07-1.59
			c-0.59-0.51-1.01-1.13-1.21-1.84c-0.09-0.31-0.11-0.6,0.3-0.84c0.49,0.02,1.04,0.04,1.58,0.06c0.41,0.01,0.82,0,1.23,0
			c1.19,0,2.38-0.04,3.57,0.01c1.02,0.04,2.04,0.18,3.06,0.28c1.05,0.1,2.1,0.2,3.02,0.6c1.16-0.47,1.49-1.27,1.45-2.25
			c-0.72-0.89-1.35-1.83-2.35-2.51c-0.73-0.5-1.48-0.96-2.24-1.43c-0.98-0.6-1.52-0.02-2.4,0.5c-1,0.6-2.03,1.14-3.08,1.64
			c-0.29,0.14-0.58,0.27-0.89,0.35c-0.49,0.12-1,0.08-1.5,0.07c-1.28-0.04-2.56,0.05-3.83,0.28c-0.64,0.11-1.31,0.26-1.93,0.06
			c-0.62-0.2-1.13-0.89-0.88-1.49c0.28-0.66,0.83-0.37,1.33-0.46c0.7-0.13,1.54-0.81,2.16-1.15c1.48-0.79,2.96-1.59,4.44-2.37
			c0.34-0.18,0.74-0.32,1.13-0.39c1.09-0.2,1.81-0.76,2.35-1.55c0.5-0.73,0.67-1.46,0.16-2.24c-0.34-0.52-0.63-1.07-0.99-1.59
			c-0.14-0.21-0.38-0.37-0.59-0.53c-0.91-0.68-1.97-0.47-3.04-0.42c-0.4,0.73-0.1,1.43-0.02,2.17c-0.33,0.42-0.69,0.87-1.02,1.33
			c-0.37,0.51-0.72,1.04-1.05,1.57c-0.66,1.1-1.85,1.88-2.55,2.96c-0.23,0.36-0.67,0.58-1.23,0.52c-1.05-0.12-0.44-3.84-0.41-4.48
			c0.02-0.39,0.04-0.79,0.15-1.17c0.24-0.83,0.9-1.25,1.3-1.95c0.3-0.51,0.2-1.28,0.03-1.84c-0.28-0.91-1.36-1.99-2.41-1.9
			c-1.09,0.09-2.04,0.18-2.99,0.26c-1.23,0.1-2.4,0.37-3.48,0.88c-0.57,0.26-1.05,0.61-1.38,1.11c0.58,0.79,1.56,0.17,2.35,0.59
			c0.5,1.77,0.58,3.58,0.75,5.41c0.12,1.27,0.23,2.53,0.35,3.8c0.1,1.11,0.4,2.4,0.06,3.49c-1.39,0.11-2.76,0.11-4.15,0.32
			c-1.45,0.22-2.89,0.5-4.36,0.51c-1.17,0.01-2.34-0.16-3.52-0.19c-0.62-0.01-1.22,0.09-1.84,0.12c-0.45,0.02-0.89-0.09-1.35-0.09
			c-0.57-0.01-0.99,0.18-1.21,0.71c1.25,1.29,2.44,2.64,3.92,3.78c0.33-0.15,0.59-0.25,0.84-0.37c1.49-0.69,3-1.32,4.66-1.68
			c0.43-0.09,0.86-0.21,1.36-0.34c0.29,0.2,0.57,0.39,0.86,0.59c-0.46,1.14-0.96,2.16-1.84,3.03c-0.19,0.18-0.37,0.38-0.49,0.6
			c-1,1.88-2.25,3.63-3.55,5.36c-1.3,1.72-2.47,3.52-4.18,5c-0.39,0.34-0.67,0.77-0.75,1.32c0.59,0.09,0.97-0.14,1.31-0.43
			c1.86-1.55,3.72-3.1,5.59-4.65c0.74-0.61,1.53-1.18,2.21-1.83c1.5-1.46,2.94-2.97,4.42-4.45c0.25-0.25,0.53-0.48,0.83-0.68
			c0.34-0.22,0.71-0.25,0.97,0.06c0.04,0.53,0.02,1.03,0.13,1.51c0.2,0.89,0.33,1.78,0.29,2.69c-0.08,1.76-0.16,3.51-0.25,5.27
			c-0.03,0.6-0.04,1.26,0.35,1.72c0.55,0.64,1.62,0.51,2.32,0.03c0.92-0.62,1.46-1.65,1.96-2.63c0.26-0.52,0.53-1.05,0.65-1.62
			c0.1-0.48,0.09-0.97,0.09-1.47c0-1.77-0.05-3.54-0.08-5.32c-0.02-1.47-0.44-3.52,0.66-4.71c0.5,0,0.98,0,1.44,0
			c0.37,0.15,0.54,0.38,0.64,0.7c0.19,0.61,0.4,1.21,0.66,1.8c1.04,2.35,1.98,4.61,3.75,6.54c0.79,0.86,1.68,1.63,2.58,2.37
			c1.76,1.45,4.78,3.18,6.74,1.11c0.52-0.56,1.18-1,1.94-1.33c1.69-0.73,3.56-1.27,5.42-1.1c0.24,0.02,0.49,0.05,0.72-0.02
			c0.84-0.28,0.15-0.98-0.42-1C364.91,365.75,364.88,365.75,364.85,365.75z"/>
		<path class="st0" d="M427.29,346.24c0.64,0.14,1.35,0.29,1.84,0.63c0.56,0.38,1.11,0.62,1.78,0.67c0.63,0.42,1.24,0.82,1.84,1.23
			c0.69,0.47,1.45,0.7,2.25,0.54c0.87-0.97,1.7-1.89,2.58-2.86c0-0.47,0.05-1.02-0.01-1.57c-0.14-1.4-0.81-2.39-2.5-2.75
			c-0.65-0.14-1.3-0.3-1.95-0.42c-1.29-0.23-2.6-0.31-3.91-0.21c-1.26,0.1-2.21,0.54-2.63,1.7c-0.31,0.84-0.31,1.65-0.29,2.47
			C426.51,346,426.85,346.14,427.29,346.24z"/>
		<path class="st0" d="M426.56,381.65c0.26,0.81,0.65,1.62,1.14,2.29c0.64,0.86,1.53,1.5,2.44,2.07c0.85,0.53,1.74,1,2.65,1.41
			c0.39,0.18,0.81,0.35,1.25,0.33c0.6-0.03,1.11-0.43,1.62-0.76c0.93-0.61,1.96-1.07,2.6-2.03c0.15-0.23,0.28-0.49,0.27-0.77
			c-0.03-0.51-0.52-0.86-0.93-1.17c-0.5-0.38-0.96-0.84-1.52-1.14c-0.47-0.25-1-0.37-1.52-0.5c-1.36-0.35-2.71-0.82-4.11-0.99
			c-1.45-0.18-2.69,0.13-4.1,0.44C426.4,381.1,426.47,381.38,426.56,381.65z"/>
		<path class="st0" d="M424.1,354.3c0.3-0.02,0.65,0.01,0.92,0.12c0.43,0.17,0.82,0.41,1.21,0.65c0.65,0.41,1.3,0.82,2.29,0.7
			c0.6-0.59,0.75-1.32,1.01-2.02c0.37-1.05,0.11-1.99-0.43-2.93c-0.35-0.59-0.91-0.93-1.65-1.01c-0.5-0.05-1.06-0.08-1.52,0.06
			c-0.91,0.28-1.83,0.18-2.76,0.2c-0.26,0.01-0.52-0.02-0.77-0.01c-1.04,0.05-1.57,0.65-1.33,1.51c0.07,0.26,0.21,0.51,0.3,0.73
			c-0.05,0.23-0.1,0.42-0.13,0.57C421.93,354.04,422.66,354.38,424.1,354.3z"/>
		<path class="st0" d="M431.3,376.12c0.55,0.43,1.15,0.78,1.85,1c1.11,0.35,1.96,0.21,2.65-0.59c0.51-0.59,0.9-1.25,1.29-1.91
			c0.21-0.35,0.22-0.76-0.05-1.1c-0.25-0.31-0.53-0.62-0.88-0.86c-2.59-1.75-5.39-1.68-8.24-0.7c-0.24,0.32-0.06,0.53,0.1,0.73
			C428.98,373.93,430.01,375.11,431.3,376.12z"/>
		<path class="st0" d="M324.12,346.42c0.87,1.52,1.73,3.04,2.56,4.58c0.22,0.41,0.29,0.88,0.47,1.32c0.18,0.45,0.11,1,0.73,1.35
			c0.89,0.05,1.18-0.01,1.42-0.33c0.44-0.57,0.87-1.14,1.29-1.72c0.43-0.59,0.69-1.24,0.64-1.93c-0.08-1.26-0.83-2.2-2-2.94
			c-1.65-1.05-3.53-1.64-5.46-2.17c-0.19-0.05-0.42-0.01-0.67-0.01c-0.03,0.41,0.12,0.68,0.36,0.95
			C323.71,345.8,323.94,346.1,324.12,346.42z"/>
		<path class="st0" d="M383.45,360.65c-0.45,0.53-0.89,1.06-1.32,1.62c-0.16,0.2-0.25,0.47-0.38,0.72c0.13,0.15,0.21,0.27,0.29,0.31
			c0.61,0.31,0.67,0.44,1.05,0.83c0.15,0.15,0.29,0.28,0.43,0.43c1.12,1.19,3.49,0.86,4.03-1.31c0.31-1.23,0.58-2.48,0.84-3.73
			c0.07-0.35-0.02-0.7-0.31-0.94c-0.4-0.04-0.74,0.11-1.08,0.35c-0.28,0.19-0.6,0.33-0.94,0.37
			C384.83,359.43,384.22,359.75,383.45,360.65z"/>
	</g>
	<g>
		<g>
			<path class="st0" d="M447.74,343.93v-7.21c0.07-1.18-0.51-1.72-1.75-1.64v-0.53h5.95c3.76,0,5.64,0.96,5.64,2.88
				c0,1.35-0.89,2.29-2.67,2.82l2.46,4c0.34,0.66,0.99,1.05,1.95,1.18v0.52h-3.8l-2.87-5.31h-2.46v3.21
				c-0.14,1.14,0.44,1.66,1.74,1.57v0.52H446v-0.52C447.23,345.53,447.81,345.02,447.74,343.93z M450.21,340.13h1.64
				c2.19-0.04,3.29-0.92,3.29-2.62c0.07-1.66-1.1-2.47-3.49-2.42h-1.44V340.13z"/>
		</g>
		<path class="st0" d="M452.67,351.38c-6.13,0-11.12-4.99-11.12-11.12c0-6.13,4.99-11.12,11.12-11.12s11.12,4.99,11.12,11.12
			C463.79,346.39,458.8,351.38,452.67,351.38z M452.67,330.54c-5.36,0-9.72,4.36-9.72,9.72s4.36,9.72,9.72,9.72s9.72-4.36,9.72-9.72
			S458.03,330.54,452.67,330.54z"/>
	</g>
</g>
</svg>
